<?xml version="1.0" encoding="utf-8"?>
<!-- Generator: Adobe Illustrator 24.1.0, SVG Export Plug-In . SVG Version: 6.00 Build 0)  -->
<svg version="1.1" id="Layer_1" xmlns="http://www.w3.org/2000/svg" xmlns:xlink="http://www.w3.org/1999/xlink" x="0px" y="0px"
	 viewBox="0 0 80 80" style="enable-background:new 0 0 80 80;" xml:space="preserve">
<style type="text/css">
	.st0{fill:#FFFFFF;}
	.st1{fill:#7E0101;}
	.st2{fill:#400000;}
	.st3{fill:#E18F36;}
	.st4{fill:#EAAA3B;}
</style>
<circle cx="40.4" cy="40.4" r="39.6"/>
<circle class="st0" cx="39.6" cy="39.6" r="39.6"/>
<path d="M76.1,38.9c0,20.5-16.6,37.2-37.2,37.2C18.4,76.1,1.8,59.5,1.8,39S18.4,1.8,39,1.8c0,0,0,0,0,0
	C59.5,1.8,76.1,18.4,76.1,38.9z"/>
<path class="st1" d="M76.8,39.6c0,20.5-16.7,37.2-37.2,37.2S2.4,60.1,2.4,39.6C2.4,19,19.1,2.4,39.6,2.4
	C60.1,2.4,76.8,19.1,76.8,39.6C76.8,39.6,76.8,39.6,76.8,39.6z"/>
<path class="st2" d="M69.9,22.5C60.4,5.8,39.3-0.1,22.5,9.3S-0.1,39.9,9.3,56.6c2.6,4.7,6.3,8.7,10.8,11.7
	C23.9,43.8,44.8,24.3,69.9,22.5z"/>
<path d="M59,27.3l-7.2-7.2c-2.7-2.7-7.1-2.7-9.8,0L21.5,40.6c-0.7,0.7-0.7,1.8,0,2.4l2.4,2.4l-6.3,6.3c-0.7,0.7-0.7,1.7,0,2.4
	c0,0,0,0,0,0l7.4,7.4c0.3,0.3,0.7,0.5,1.2,0.5c0.5,0,0.9-0.2,1.2-0.5l6.3-6.3l2.3,2.3c0.3,0.3,0.8,0.5,1.2,0.5l0,0
	c0.5,0,0.9-0.2,1.2-0.5L52.9,43c0.6-0.7,0.6-1.8-0.1-2.4c-0.7-0.6-1.7-0.6-2.3,0L37.2,53.9L37,53.6l0,0l-2.2-2.2l3.7-3.8
	c0.2,0,0.3,0,0.5,0c1.7,0,3-1.3,3-3s-1.3-3-3-3s-3,1.3-3,3c0,0.2,0,0.4,0.1,0.6L32.4,49l0,0l0,0l-2.5-2.5l0,0l0.1-0.1l0,0l7.4-7.4
	H45c0.5,0,0.9-0.2,1.2-0.5l3.3-3.3c0.2,0,0.4,0.1,0.6,0.1c1.7,0,3-1.3,3-3c0-1.7-1.3-3-3-3s-3,1.3-3,3l0,0c0,0.2,0,0.3,0,0.5
	l-2.8,2.9h-7.7c-0.5,0-0.9,0.2-1.2,0.5l-7.9,8.1L26,42.7l-0.9-0.9l19.3-19.3c1.4-1.4,3.6-1.4,4.9,0l7.2,7.2c1.3,1.3,1.3,3.5,0,4.8
	c-0.7,0.7-0.7,1.8,0,2.5s1.8,0.7,2.5,0C61.7,34.3,61.7,30,59,27.3C59,27.3,59,27.3,59,27.3z M37,53.6L37,53.6l-3.1-3.1L37,53.6z
	 M26.3,47.8L26.3,47.8l4.9,5l-5.1,5.1l-5-5L26.3,47.8z"/>
<path class="st0" d="M59,26.2L51.8,19c-2.7-2.7-7.1-2.7-9.8,0L21.5,39.5c-0.7,0.7-0.7,1.8,0,2.4c0,0,0,0,0,0l2.4,2.4l-6.3,6.3
	c-0.7,0.7-0.7,1.8,0,2.4c0,0,0,0,0,0l7.4,7.4c0.7,0.7,1.7,0.7,2.4,0l6.3-6.3l2.3,2.3c0.3,0.3,0.8,0.5,1.2,0.5l0,0
	c0.5,0,0.9-0.2,1.2-0.5L52.9,42c0.6-0.7,0.6-1.8-0.1-2.4c-0.7-0.6-1.7-0.6-2.3,0L37.2,52.8L37,52.6l0,0l-11-11l-0.9-0.9l19.3-19.3
	c1.4-1.4,3.6-1.4,4.9,0l7.2,7.2c1.3,1.3,1.3,3.5,0,4.8c-0.7,0.7-0.7,1.8,0,2.4s1.8,0.7,2.4,0l0,0C61.7,33.2,61.7,28.9,59,26.2
	C59,26.2,59,26.2,59,26.2z M26.3,46.8L26.3,46.8l4.9,5l-5.1,5.1l-5-5L26.3,46.8z"/>
<path class="st3" d="M39,40.7c-1.7,0-3,1.3-3,3c0,0.2,0,0.4,0.1,0.6L32.4,48l0,0l0,0l4.6,4.6l-2.2-2.2l3.7-3.7c0.2,0,0.3,0,0.5,0
	c1.7,0,3-1.3,3-3S40.7,40.7,39,40.7L39,40.7z"/>
<path class="st4" d="M50.1,28.2c-1.7,0-3,1.3-3,3c0,0.2,0,0.3,0,0.5l-2.8,2.9h-7.7c-0.5,0-0.9,0.2-1.2,0.5l-7.9,8.1l2.3,2.3l0,0l0,0
	l0,0l0.1-0.1l0,0l7.5-7.4H45c0.5,0,0.9-0.2,1.2-0.5l3.3-3.3c0.2,0,0.4,0,0.6,0c1.7,0,3-1.3,3-3C53.1,29.6,51.7,28.2,50.1,28.2
	L50.1,28.2z"/>
</svg>
