<svg id="Layer_1" data-name="Layer 1" xmlns="http://www.w3.org/2000/svg" viewBox="0 0 80 80"><defs><style>.cls-1{fill:#fff;}.cls-2{fill:#1e4065;}.cls-3{fill:#0c1f44;}.cls-4{fill:#eaaa3b;}.cls-5{fill:#cbcbcb;}</style></defs><title>icon-full-control-assets-full-color-80h</title><circle cx="40.4" cy="40.4" r="39.6"/><circle class="cls-1" cx="39.6" cy="39.6" r="39.6"/><path d="M76.14,38.94A37.18,37.18,0,1,1,39,1.77,37.18,37.18,0,0,1,76.14,38.94Z"/><path class="cls-2" d="M76.78,39.59A37.17,37.17,0,1,1,39.61,2.41,37.17,37.17,0,0,1,76.78,39.59Z"/><path class="cls-3" d="M69.87,22.51A34.75,34.75,0,1,0,20.12,68.35C23.94,43.8,44.77,24.28,69.87,22.51Z"/><path d="M29.22,35.5a10,10,0,1,1,18.43,5.37,3.21,3.21,0,0,0-.61.32,3.3,3.3,0,0,0-1.15-1.28,8,8,0,1,0-10.08,2.82v2.16A10,10,0,0,1,29.22,35.5ZM54.09,44h-.21a2.24,2.24,0,0,0-2.24,2.24v2l-.28-2.41v-2a2.25,2.25,0,0,0-2.24-2.24H48.9a2.25,2.25,0,0,0-2.24,2.24v2l-.28-1.21v-2a2.24,2.24,0,0,0-2.24-2.24h-.22a2.24,2.24,0,0,0-2.24,2.24v2h-.15V34.26A2.25,2.25,0,0,0,39.28,32h-.22a2.26,2.26,0,0,0-2.25,2.26V51.42c-.6-.68-1.13-1.37-1.62-2-1.07-1.4-1.92-2.5-2.88-2.72a2.24,2.24,0,0,0-2.51.87A2.86,2.86,0,0,0,30,50.4c1.23,2.34,7.13,12.66,7.13,12.66.47,1.12,2.52,4.81,9.45,4.81v0c5,0,7.42-2.38,8.54-4.37a9.86,9.86,0,0,0,1.22-4.37V46.26A2.24,2.24,0,0,0,54.09,44Zm-1.5-5.62a2,2,0,1,0,0-2.81,1.76,1.76,0,0,0-.24.3l-2.11,0a10.64,10.64,0,0,1-.36,2.28l2.54,0A1.64,1.64,0,0,0,52.59,38.4Zm13.79-3.68a2,2,0,0,0-2.81,0l-.2.24-2.66.06-3.64-3.54a1.1,1.1,0,0,0-.8-.32l-6.94.2A10,10,0,0,1,50,33.53l5.8-.06L59.47,37a1.13,1.13,0,0,0,.82.32l3.07-.07a1.81,1.81,0,0,0,.25.3,2,2,0,0,0,2.77-2.85Zm-40.62-.15a3.15,3.15,0,0,0,.24-.3l2.11,0A10.05,10.05,0,0,1,28.47,32l-2.54,0a2.25,2.25,0,0,0-.21-.24,2,2,0,1,0,0,2.81Zm-3.27,2.12-3.65-3.56a1.17,1.17,0,0,0-.82-.32L15,32.88a2.26,2.26,0,0,0-.25-.29,2,2,0,1,0,0,2.81,2.43,2.43,0,0,0,.2-.25l2.66-.06,3.64,3.55A1.13,1.13,0,0,0,22,39l6.94-.2a9.82,9.82,0,0,1-.69-2.13ZM39.51,20a2,2,0,0,0,0,2.81,1.76,1.76,0,0,0,.3.24l0,1.53a10,10,0,0,1,2.27.41l0-2a2.25,2.25,0,0,0,.24-.21A2,2,0,0,0,39.51,20Zm-2,4.71,0-4.17L41,16.84A1.08,1.08,0,0,0,41.3,16L41.24,14a1.68,1.68,0,0,0,.29-.25,2,2,0,0,0-2.85-2.77,2,2,0,0,0,0,2.81,1.57,1.57,0,0,0,.25.2L39,15.6l-3.55,3.64a1.12,1.12,0,0,0-.32.81l.17,5.23A10.24,10.24,0,0,1,37.48,24.66Z"/><path class="cls-4" d="M34.81,43.89V41.73a8,8,0,1,1,10.08-2.82A3.3,3.3,0,0,1,46,40.19a3.21,3.21,0,0,1,.61-.32,10,10,0,1,0-11.84,4Z"/><path class="cls-1" d="M53.09,43h-.21a2.24,2.24,0,0,0-2.24,2.24v2l-.28-2.41v-2a2.25,2.25,0,0,0-2.24-2.24H47.9a2.25,2.25,0,0,0-2.24,2.24v2l-.28-1.21v-2a2.24,2.24,0,0,0-2.24-2.24h-.22a2.24,2.24,0,0,0-2.24,2.24v2h-.15V33.26A2.25,2.25,0,0,0,38.28,31h-.22a2.26,2.26,0,0,0-2.25,2.26V50.42c-.6-.68-1.13-1.37-1.62-2-1.07-1.4-1.92-2.5-2.88-2.72a2.24,2.24,0,0,0-2.51.87A2.86,2.86,0,0,0,29,49.4c1.23,2.34,7.13,12.66,7.13,12.66.47,1.12,2.52,4.81,9.45,4.81v0c5,0,7.42-2.38,8.54-4.37a9.86,9.86,0,0,0,1.22-4.37V45.26A2.24,2.24,0,0,0,53.09,43Z"/><path class="cls-5" d="M54.36,34.55a2,2,0,0,0-2.81,0,1.76,1.76,0,0,0-.24.3l-2.11,0a10.64,10.64,0,0,1-.36,2.28l2.54,0a1.64,1.64,0,0,0,.21.25,2,2,0,0,0,2.77-2.85Z"/><path class="cls-1" d="M65.38,33.72a2,2,0,0,0-2.81,0l-.2.24-2.66.06-3.64-3.54a1.1,1.1,0,0,0-.8-.32l-6.94.2A10,10,0,0,1,49,32.53l5.8-.06L58.47,36a1.13,1.13,0,0,0,.82.32l3.07-.07a1.81,1.81,0,0,0,.25.3,2,2,0,0,0,2.77-2.85Z"/><path class="cls-5" d="M22,33.6a2,2,0,0,0,2.81,0,3.15,3.15,0,0,0,.24-.3l2.11,0A9.52,9.52,0,0,1,27.47,31l-2.54,0a2.25,2.25,0,0,0-.21-.24A2,2,0,1,0,22,33.6Z"/><path class="cls-1" d="M10.93,34.43a2,2,0,0,0,2.81,0,2.43,2.43,0,0,0,.2-.25l2.66-.06,3.64,3.55A1.13,1.13,0,0,0,21,38l6.94-.2a9.82,9.82,0,0,1-.69-2.13l-5.8.06-3.65-3.56a1.17,1.17,0,0,0-.82-.32L14,31.88a2.26,2.26,0,0,0-.25-.29,2,2,0,1,0-2.77,2.84Z"/><path class="cls-5" d="M38.85,22l0,1.53a10,10,0,0,1,2.27.41l0-2a2.25,2.25,0,0,0,.24-.21A2,2,0,0,0,38.51,19a2,2,0,0,0,0,2.81A1.76,1.76,0,0,0,38.85,22Z"/><path class="cls-1" d="M36.48,23.66l0-4.17L40,15.84A1.08,1.08,0,0,0,40.3,15L40.24,13a1.68,1.68,0,0,0,.29-.25,2,2,0,0,0-2.85-2.77,2,2,0,0,0,0,2.81,1.57,1.57,0,0,0,.25.2L38,14.6l-3.55,3.64a1.12,1.12,0,0,0-.32.81l.17,5.23A10.24,10.24,0,0,1,36.48,23.66Z"/></svg>