<?xml version="1.0" encoding="utf-8"?>
<!-- Generator: Adobe Illustrator 24.1.0, SVG Export Plug-In . SVG Version: 6.00 Build 0)  -->
<svg version="1.1" id="Layer_1" xmlns="http://www.w3.org/2000/svg" xmlns:xlink="http://www.w3.org/1999/xlink" x="0px" y="0px"
	 viewBox="0 0 80 80" style="enable-background:new 0 0 80 80;" xml:space="preserve">
<style type="text/css">
	.st0{fill:#FFFFFF;}
	.st1{fill:#7E0101;}
	.st2{fill:#400000;}
	.st3{fill:#EAAA3B;}
	.st4{fill:#CBCBCB;}
</style>
<circle cx="40.4" cy="40.4" r="39.6"/>
<circle class="st0" cx="39.6" cy="39.6" r="39.6"/>
<path d="M76.1,38.9c0,20.5-16.6,37.2-37.2,37.2C18.4,76.1,1.8,59.5,1.8,39S18.4,1.8,39,1.8c0,0,0,0,0,0
	C59.5,1.8,76.1,18.4,76.1,38.9z"/>
<path class="st1" d="M76.8,39.6c0,20.5-16.7,37.2-37.2,37.2S2.4,60.1,2.4,39.6C2.4,19,19.1,2.4,39.6,2.4
	C60.1,2.4,76.8,19.1,76.8,39.6C76.8,39.6,76.8,39.6,76.8,39.6z"/>
<path class="st2" d="M69.9,22.5C60.4,5.8,39.3-0.1,22.5,9.3S-0.1,39.9,9.3,56.6c2.6,4.7,6.3,8.7,10.8,11.7
	C23.9,43.8,44.8,24.3,69.9,22.5z"/>
<path d="M29.2,35.5c0-5.5,4.5-10,10-10s10,4.5,10,10c0,1.9-0.5,3.8-1.6,5.4c-0.2,0.1-0.4,0.2-0.6,0.3c-0.3-0.5-0.7-1-1.2-1.3
	c2.4-3.7,1.4-8.6-2.3-11.1c-3.7-2.4-8.6-1.4-11.1,2.3c-2.4,3.7-1.4,8.6,2.3,11.1c0.3,0.2,0.7,0.4,1,0.6v2.2
	C31.9,43.5,29.2,39.7,29.2,35.5z M54.1,44h-0.2c-1.2,0-2.2,1-2.2,2.2v0v2l-0.3-2.4v-2c0-1.2-1-2.2-2.2-2.2h-0.2
	c-1.2,0-2.2,1-2.2,2.2v2l-0.3-1.2v-2c0-1.2-1-2.2-2.2-2.2h0h-0.2c-1.2,0-2.2,1-2.2,2.2v0v2h-0.2V34.3c0-1.2-1-2.3-2.2-2.3
	c0,0,0,0,0,0h-0.2c-1.2,0-2.3,1-2.2,2.3v17.2c-0.6-0.7-1.1-1.4-1.6-2c-1.1-1.4-1.9-2.5-2.9-2.7c-0.9-0.3-2,0.1-2.5,0.9
	c-0.4,0.9-0.4,2,0.2,2.8c1.2,2.3,7.1,12.7,7.1,12.7c0.5,1.1,2.5,4.8,9.5,4.8l0,0c5,0,7.4-2.4,8.5-4.4c0.7-1.3,1.2-2.8,1.2-4.4V46.3
	C56.4,45,55.4,44,54.1,44C54.1,44,54.1,44,54.1,44z M52.6,38.4c0.8,0.8,2,0.8,2.8,0c0.8-0.8,0.8-2,0-2.8c-0.8-0.8-2-0.8-2.8,0
	c0,0,0,0,0,0c-0.1,0.1-0.2,0.2-0.2,0.3h-2.1c0,0.8-0.2,1.5-0.4,2.3h2.5C52.5,38.2,52.5,38.3,52.6,38.4L52.6,38.4z M66.4,34.7
	c-0.8-0.8-2-0.8-2.8,0l-0.2,0.2L60.7,35l-3.6-3.5c-0.2-0.2-0.5-0.3-0.8-0.3l-6.9,0.2c0.3,0.7,0.5,1.4,0.7,2.2l5.8-0.1l3.7,3.5
	c0.2,0.2,0.5,0.3,0.8,0.3l3.1-0.1c0.1,0.1,0.2,0.2,0.2,0.3c0.9,0.7,2.1,0.5,2.8-0.4C67,36.5,67,35.4,66.4,34.7z M25.8,34.5
	c0.1-0.1,0.2-0.2,0.2-0.3h2.1c0-0.8,0.2-1.5,0.4-2.2h-2.5c-0.1-0.1-0.1-0.2-0.2-0.2c-0.8-0.8-2-0.8-2.8,0s-0.8,2,0,2.8
	C23.6,35.4,24.9,35.4,25.8,34.5C25.7,34.6,25.7,34.6,25.8,34.5L25.8,34.5z M22.5,36.7l-3.6-3.6c-0.2-0.2-0.5-0.3-0.8-0.3l-3,0.1
	c-0.1-0.1-0.2-0.2-0.2-0.3c-0.8-0.8-2-0.8-2.8,0c-0.8,0.8-0.8,2,0,2.8c0.8,0.8,2,0.8,2.8,0c0,0,0,0,0,0c0.1-0.1,0.1-0.2,0.2-0.2
	l2.7-0.1l3.6,3.5c0.2,0.2,0.5,0.3,0.8,0.4l6.9-0.2c-0.3-0.7-0.5-1.4-0.7-2.1H22.5z M39.5,20c-0.8,0.8-0.8,2,0,2.8
	c0.1,0.1,0.2,0.2,0.3,0.2v1.5c0.8,0,1.5,0.2,2.3,0.4v-2c0.1-0.1,0.2-0.1,0.2-0.2c0.6-0.9,0.4-2.1-0.4-2.8
	C41.2,19.5,40.2,19.5,39.5,20z M37.5,24.7v-4.2l3.5-3.7c0.2-0.2,0.3-0.5,0.3-0.8l-0.1-2c0.1-0.1,0.2-0.2,0.3-0.2
	c0.7-0.9,0.5-2.1-0.4-2.8c-0.7-0.6-1.8-0.6-2.5,0c-0.8,0.8-0.8,2,0,2.8c0.1,0.1,0.2,0.1,0.2,0.2l0.1,1.6l-3.5,3.6
	c-0.2,0.2-0.3,0.5-0.3,0.8l0.2,5.2C36,25,36.7,24.8,37.5,24.7L37.5,24.7z"/>
<path class="st3" d="M34.8,43.9v-2.2c-4-1.9-5.7-6.6-3.8-10.6c1.9-4,6.6-5.7,10.6-3.8c4,1.9,5.7,6.6,3.8,10.6
	c-0.2,0.3-0.4,0.7-0.6,1c0.5,0.3,0.9,0.8,1.1,1.3c0.2-0.1,0.4-0.2,0.6-0.3c3-4.6,1.6-10.8-3-13.8s-10.8-1.6-13.8,3s-1.6,10.8,3,13.8
	C33.4,43.3,34.1,43.6,34.8,43.9L34.8,43.9z"/>
<path class="st0" d="M53.1,43h-0.2c-1.2,0-2.2,1-2.2,2.2v0v2l-0.3-2.4v-2c0-1.2-1-2.2-2.2-2.2h-0.2c-1.2,0-2.2,1-2.2,2.2v2l-0.3-1.2
	v-2c0-1.2-1-2.2-2.2-2.2h0h-0.2c-1.2,0-2.2,1-2.2,2.2v0v2h-0.2V33.3c0-1.2-1-2.3-2.2-2.3c0,0,0,0,0,0h-0.2c-1.2,0-2.3,1-2.2,2.3
	v17.2c-0.6-0.7-1.1-1.4-1.6-2c-1.1-1.4-1.9-2.5-2.9-2.7c-0.9-0.3-2,0.1-2.5,0.9c-0.4,0.9-0.4,2,0.2,2.8c1.2,2.3,7.1,12.7,7.1,12.7
	c0.5,1.1,2.5,4.8,9.5,4.8l0,0c5,0,7.4-2.4,8.5-4.4c0.7-1.3,1.2-2.8,1.2-4.4V45.3C55.4,44,54.4,43,53.1,43C53.1,43,53.1,43,53.1,43z"
	/>
<path class="st4" d="M54.4,34.5c-0.8-0.8-2-0.8-2.8,0c-0.1,0.1-0.2,0.2-0.2,0.3h-2.1c0,0.8-0.2,1.5-0.4,2.3h2.5
	c0.1,0.1,0.1,0.2,0.2,0.2c0.9,0.7,2.1,0.5,2.8-0.4C55,36.3,55,35.3,54.4,34.5L54.4,34.5z"/>
<path class="st0" d="M65.4,33.7c-0.8-0.8-2-0.8-2.8,0L62.4,34L59.7,34l-3.6-3.5c-0.2-0.2-0.5-0.3-0.8-0.3l-6.9,0.2
	c0.3,0.7,0.5,1.4,0.7,2.2l5.8-0.1l3.7,3.5c0.2,0.2,0.5,0.3,0.8,0.3l3.1-0.1c0.1,0.1,0.2,0.2,0.2,0.3c0.9,0.7,2.1,0.5,2.8-0.4
	C66,35.5,66,34.4,65.4,33.7L65.4,33.7z"/>
<path class="st4" d="M22,33.6c0.8,0.8,2,0.8,2.8,0c0.1-0.1,0.2-0.2,0.2-0.3h2.1c0-0.8,0.1-1.5,0.3-2.3h-2.5
	c-0.1-0.1-0.1-0.2-0.2-0.2c-0.6-0.9-1.9-1.1-2.8-0.5c-0.9,0.6-1.1,1.9-0.5,2.8C21.6,33.3,21.8,33.5,22,33.6z"/>
<path class="st0" d="M10.9,34.4c0.8,0.8,2,0.8,2.8,0c0.1-0.1,0.1-0.2,0.2-0.2l2.7-0.1l3.6,3.5c0.2,0.2,0.5,0.3,0.8,0.3l6.9-0.2
	c-0.3-0.7-0.5-1.4-0.7-2.1l-5.8,0.1l-3.6-3.6c-0.2-0.2-0.5-0.3-0.8-0.3l-3,0c-0.1-0.1-0.2-0.2-0.2-0.3c-0.7-0.9-1.9-1-2.8-0.3
	c-0.9,0.7-1,1.9-0.3,2.8C10.7,34.2,10.8,34.3,10.9,34.4L10.9,34.4z"/>
<path class="st4" d="M38.8,22v1.5c0.8,0,1.5,0.2,2.3,0.4v-2c0.1-0.1,0.2-0.1,0.2-0.2c0.6-0.9,0.4-2.2-0.5-2.8
	c-0.7-0.5-1.6-0.5-2.3,0.1c-0.8,0.8-0.8,2,0,2.8C38.6,21.9,38.7,21.9,38.8,22z"/>
<path class="st0" d="M36.5,23.7v-4.2l3.5-3.6c0.2-0.2,0.3-0.5,0.3-0.8l-0.1-2c0.1-0.1,0.2-0.2,0.3-0.2c0.7-0.9,0.5-2.1-0.4-2.8
	c-0.7-0.6-1.8-0.6-2.5,0c-0.8,0.8-0.8,2,0,2.8c0.1,0.1,0.2,0.1,0.2,0.2l0.1,1.6l-3.5,3.6c-0.2,0.2-0.3,0.5-0.3,0.8l0.2,5.2
	C35,24,35.7,23.8,36.5,23.7z"/>
</svg>
