<svg id="Layer_1" data-name="Layer 1" xmlns="http://www.w3.org/2000/svg" viewBox="0 0 80 80"><defs><style>.cls-1{fill:#fff;}.cls-2{fill:#1e4065;}.cls-3{fill:#0c1f44;}.cls-4{fill:#e18f36;}.cls-5{fill:#eaaa3b;}</style></defs><title>icon-private-key-full-color-80h</title><circle cx="40.4" cy="40.4" r="39.6"/><circle class="cls-1" cx="39.6" cy="39.6" r="39.6"/><path d="M76.14,38.94A37.18,37.18,0,1,1,39,1.77,37.18,37.18,0,0,1,76.14,38.94Z"/><path class="cls-2" d="M76.78,39.59A37.17,37.17,0,1,1,39.61,2.41,37.17,37.17,0,0,1,76.78,39.59Z"/><path class="cls-3" d="M69.87,22.51A34.75,34.75,0,1,0,20.12,68.35C23.94,43.8,44.77,24.28,69.87,22.51Z"/><path d="M59,27.27l-7.21-7.21a6.91,6.91,0,0,0-9.77,0L21.5,40.58a1.72,1.72,0,0,0,0,2.43l2.4,2.41-6.34,6.26a1.71,1.71,0,0,0,0,2.44L25,61.5a1.71,1.71,0,0,0,1.2.5,1.75,1.75,0,0,0,1.22-.5l6.26-6.27L36,57.54a1.72,1.72,0,0,0,1.22.5h0a1.72,1.72,0,0,0,1.21-.5L52.87,43a1.72,1.72,0,0,0-2.44-2.42L37.23,53.89,37,53.61h0L34.8,51.46l3.74-3.75a2.63,2.63,0,0,0,.49,0,3,3,0,1,0-3-3,2.69,2.69,0,0,0,.06.57L32.37,49l0,0h0l-2.53-2.54h0l.06-.06h0L37.33,39H45a1.7,1.7,0,0,0,1.22-.52l3.26-3.32a2.78,2.78,0,0,0,.58.06,3,3,0,1,0-3-3,2.42,2.42,0,0,0,0,.47l-2.82,2.87h-7.7a1.72,1.72,0,0,0-1.21.5l-7.88,8.13L26,42.66l-.86-.86,19.3-19.31a3.49,3.49,0,0,1,4.92,0l7.21,7.21a3.42,3.42,0,0,1,0,4.83A1.72,1.72,0,1,0,59,37,6.85,6.85,0,0,0,59,27.27ZM37,53.61l0,0-3.09-3.11ZM26.33,47.85h0l4.95,4.95-5.06,5.06-5-5Z"/><path class="cls-1" d="M59,26.22,51.78,19A6.92,6.92,0,0,0,42,19L21.5,39.54a1.71,1.71,0,0,0,0,2.42l2.4,2.41-6.34,6.26a1.73,1.73,0,0,0,0,2.45L25,60.46a1.73,1.73,0,0,0,2.42,0l6.26-6.26L36,56.49a1.69,1.69,0,0,0,1.22.51h0a1.73,1.73,0,0,0,1.21-.51L52.87,42a1.72,1.72,0,0,0-2.44-2.42L37.23,52.85,37,52.56l0,0L26,41.61l-.86-.86,19.3-19.3a3.48,3.48,0,0,1,4.92,0l7.21,7.2a3.43,3.43,0,0,1,0,4.84A1.71,1.71,0,1,0,59,35.91,6.85,6.85,0,0,0,59,26.22ZM26.33,46.8h0l4.95,4.95-5.06,5.06-5-5Z"/><path class="cls-4" d="M39,40.7a3,3,0,0,0-3,3,2.62,2.62,0,0,0,.06.57L32.37,48l0,0,0,0L37,52.56,34.8,50.41l3.74-3.74a3.89,3.89,0,0,0,.49,0,3,3,0,0,0,0-6Z"/><path class="cls-5" d="M50.1,28.17a3,3,0,0,0-3,3,2.59,2.59,0,0,0,0,.48l-2.82,2.87h-7.7a1.72,1.72,0,0,0-1.21.5l-7.9,8.14,2.28,2.28h0l0,0h0l.06-.06h0L37.33,38H45a1.69,1.69,0,0,0,1.22-.51l3.26-3.32a3.68,3.68,0,0,0,.58.05,3,3,0,1,0,0-6Z"/></svg>