<svg xmlns="http://www.w3.org/2000/svg" xmlns:xlink="http://www.w3.org/1999/xlink" viewBox="0 0 88 110"><defs><linearGradient id="a" x1="53.12" y1="71.92" x2="66.03" y2="60.26" gradientUnits="userSpaceOnUse"><stop offset="0" stop-color="#165a2e"/><stop offset="0.51" stop-color="#4c9343"/><stop offset="1" stop-color="#b5d890"/></linearGradient><linearGradient id="b" x1="51.7" y1="53.41" x2="78.16" y2="53.41" gradientUnits="userSpaceOnUse"><stop offset="0" stop-color="#1d4e25"/><stop offset="0.52" stop-color="#448b41"/><stop offset="1" stop-color="#acd489"/></linearGradient><linearGradient id="c" x1="67.56" y1="73.76" x2="76.24" y2="57.77" gradientUnits="userSpaceOnUse"><stop offset="0" stop-color="#1d4e25"/><stop offset="1" stop-color="#9cbe71"/></linearGradient><linearGradient id="d" x1="11.13" y1="60.31" x2="29.75" y2="43.48" gradientUnits="userSpaceOnUse"><stop offset="0" stop-color="#690e0d"/><stop offset="0.51" stop-color="#9f1d21"/><stop offset="1" stop-color="#c52127"/></linearGradient><linearGradient id="e" x1="9.31" y1="32.7" x2="46.13" y2="32.7" gradientUnits="userSpaceOnUse"><stop offset="0" stop-color="#93251e"/><stop offset="0.52" stop-color="#d52627"/><stop offset="1" stop-color="#ee412a"/></linearGradient><linearGradient id="f" x1="32.04" y1="62.28" x2="44.44" y2="39.45" gradientUnits="userSpaceOnUse"><stop offset="0" stop-color="#af2625"/><stop offset="0.49" stop-color="#dc2426"/><stop offset="1" stop-color="#aa684d"/></linearGradient><linearGradient id="g" x1="38.42" y1="33.49" x2="52.35" y2="20.91" gradientUnits="userSpaceOnUse"><stop offset="0" stop-color="#ec3f24"/><stop offset="0.51" stop-color="#ef7822"/><stop offset="1" stop-color="#fbb667"/></linearGradient><linearGradient id="h" x1="36.74" y1="13.36" x2="65.3" y2="13.36" gradientUnits="userSpaceOnUse"><stop offset="0" stop-color="#cb4b27"/><stop offset="0.52" stop-color="#f48121"/><stop offset="1" stop-color="#e8b068"/></linearGradient><linearGradient id="i" x1="54.76" y1="34.74" x2="63.78" y2="18.12" gradientUnits="userSpaceOnUse"><stop offset="0" stop-color="#cd5430"/><stop offset="0.49" stop-color="#f26f25"/><stop offset="1" stop-color="#eeba53"/></linearGradient></defs><path d="M88,6.6v96.8a6.59,6.59,0,0,1-6.6,6.6H6.6A6.59,6.59,0,0,1,0,103.4V6.6A6.59,6.59,0,0,1,6.6,0H81.4A6.59,6.59,0,0,1,88,6.6Z" style="fill:#231f20"/><path d="M11.29,88.3h1.1v3.18h1.74v.94H12.39V100h-1.1v-7.6H9.79v-.94h1.5Z" style="fill:#fff"/><path d="M14.63,91.48h1.13l2.62,6.2,2.73-6.2h.2l2.74,6.2,2.67-6.2h1.15L24.15,100H24L21.22,93.9,18.48,100h-.2Z" style="fill:#fff"/><path d="M33.2,91.26a4.19,4.19,0,0,1,3.27,1.43,4.58,4.58,0,0,1-.07,6.21,4.5,4.5,0,0,1-6.41,0,4.58,4.58,0,0,1-.07-6.21A4.21,4.21,0,0,1,33.2,91.26Zm0,1.07a3.14,3.14,0,0,0-2.35,1,3.37,3.37,0,0,0-1,2.45,3.45,3.45,0,0,0,.45,1.72,3.16,3.16,0,0,0,1.22,1.24,3.28,3.28,0,0,0,1.67.44,3.34,3.34,0,0,0,1.68-.44,3.16,3.16,0,0,0,1.22-1.24,3.45,3.45,0,0,0,.45-1.72,3.37,3.37,0,0,0-1-2.45A3.18,3.18,0,0,0,33.19,92.33Z" style="fill:#fff"/><path d="M45.31,88.17h.24v8.07h1.39v1.1H45.55V100H44.4V97.34H38.87Zm-.91,8.07V91.38L41,96.24Z" style="fill:#b22025"/><path d="M52.65,91.26a4.19,4.19,0,0,1,3.27,1.43,4.58,4.58,0,0,1-.07,6.21,4.5,4.5,0,0,1-6.41,0,4.58,4.58,0,0,1-.07-6.21A4.21,4.21,0,0,1,52.65,91.26Zm0,1.07a3.14,3.14,0,0,0-2.35,1,3.37,3.37,0,0,0-1,2.45,3.45,3.45,0,0,0,.45,1.72A3.16,3.16,0,0,0,51,98.76a3.31,3.31,0,0,0,1.67.44,3.34,3.34,0,0,0,1.68-.44,3.16,3.16,0,0,0,1.22-1.24A3.45,3.45,0,0,0,56,95.8a3.37,3.37,0,0,0-1-2.45A3.18,3.18,0,0,0,52.64,92.33Z" style="fill:#fff"/><path d="M59.14,91.48h1.1V93a4.5,4.5,0,0,1,1.46-1.32,3.56,3.56,0,0,1,1.74-.43,3,3,0,0,1,1.7.48,3,3,0,0,1,1.1,1.32,6.82,6.82,0,0,1,.35,2.56V100h-1.1V96a10.31,10.31,0,0,0-.12-2,2.17,2.17,0,0,0-.73-1.27,2.21,2.21,0,0,0-1.42-.43,2.69,2.69,0,0,0-1.78.66,3.09,3.09,0,0,0-1,1.63,12,12,0,0,0-.15,2.33V100h-1.1Z" style="fill:#fff"/><path d="M76.15,97.18l.92.49a5.16,5.16,0,0,1-1,1.45,4.11,4.11,0,0,1-1.35.83,4.51,4.51,0,0,1-1.69.29,4.11,4.11,0,0,1-3.27-1.37,4.64,4.64,0,0,1-1.18-3.1,4.56,4.56,0,0,1,1-2.9,4.09,4.09,0,0,1,3.39-1.61,4.22,4.22,0,0,1,3.49,1.65,4.63,4.63,0,0,1,.94,2.93H69.66a3.55,3.55,0,0,0,1,2.44,3.08,3.08,0,0,0,2.28,1A3.7,3.7,0,0,0,74.16,99a3.35,3.35,0,0,0,1-.6A5.5,5.5,0,0,0,76.15,97.18Zm0-2.3a3.72,3.72,0,0,0-.65-1.4,3,3,0,0,0-1.11-.85,3.34,3.34,0,0,0-1.46-.32,3.15,3.15,0,0,0-2.16.81,3.68,3.68,0,0,0-1,1.76Z" style="fill:#fff"/><polygon points="51.7 54.07 51.7 73.61 67.95 77.66 69.09 56.31 51.7 54.07" style="fill:url(#a)"/><polygon points="61.53 50.5 51.7 54.07 69.09 56.31 78.16 52.56 61.53 50.5" style="fill:url(#b)"/><polygon points="67.95 77.66 77.03 70.98 78.16 52.56 69.09 56.31 67.95 77.66" style="fill:url(#c)"/><polygon points="9.31 33.7 9.31 63.03 33.51 68.33 33.51 37.06 9.31 33.7" style="fill:url(#d)"/><polygon points="22.99 28.35 9.31 33.7 33.51 37.06 46.13 31.44 22.99 28.35" style="fill:url(#e)"/><polygon points="33.51 68.33 46.13 58.86 46.13 31.44 33.51 37.06 33.51 68.33" style="fill:url(#f)"/><polygon points="36.74 14.08 36.74 35.16 55.51 38.98 55.51 16.5 36.74 14.08" style="fill:url(#g)"/><polygon points="47.35 10.23 36.74 14.08 55.51 16.5 65.3 12.45 47.35 10.23" style="fill:url(#h)"/><polygon points="55.51 38.98 65.3 32.16 65.3 12.45 55.51 16.5 55.51 38.98" style="fill:url(#i)"/></svg>