<svg id="Layer_1" data-name="Layer 1" xmlns="http://www.w3.org/2000/svg" viewBox="0 0 42 42"><defs><style>.cls-1{fill:#231f20;}.cls-2{fill:#e06e36;}</style></defs><title>icon-send-transactions</title><path class="cls-1" d="M23.52,34.88l12-12.19a1.77,1.77,0,0,0,0-2.47L23.52,8A1.69,1.69,0,0,0,21.1,8a1.77,1.77,0,0,0-.5,1.23v5.23h-12a1.74,1.74,0,0,0,0,3.48H22.31A1.72,1.72,0,0,0,24,16.23V13.47l7.85,8-7.85,8V26.68a1.72,1.72,0,0,0-1.71-1.74h-11a12.09,12.09,0,0,1,2.8,3.48H20.6v5.23a1.73,1.73,0,0,0,1.71,1.74A1.67,1.67,0,0,0,23.52,34.88Z"/><path class="cls-2" d="M22.61,34l12-12.19a1.77,1.77,0,0,0,0-2.47l-12-12.19a1.69,1.69,0,0,0-2.42,0,1.75,1.75,0,0,0-.5,1.23v5.23h-12a1.74,1.74,0,0,0,0,3.48H21.4a1.72,1.72,0,0,0,1.71-1.74V12.55l7.85,8-7.85,8V25.77A1.72,1.72,0,0,0,21.4,24h-11a12.09,12.09,0,0,1,2.8,3.48h6.46v5.23a1.73,1.73,0,0,0,1.71,1.74A1.69,1.69,0,0,0,22.61,34Z"/></svg>