<svg id="Layer_1" data-name="Layer 1" xmlns="http://www.w3.org/2000/svg" viewBox="0 0 42 42"><defs><style>.cls-1{fill:#010101;}.cls-2{fill:#44b291;}.cls-3{fill:#e06e36;}</style></defs><title>icon-other-transactions</title><path class="cls-1" d="M41.57,15.84,31.26,5.34a1.46,1.46,0,0,0-2.08,0,1.57,1.57,0,0,0-.43,1.06v4.5H18.45a1.5,1.5,0,0,0,0,3H30.22a1.49,1.49,0,0,0,1.48-1.5V10l6.75,6.88L31.7,23.77V21.39a1.49,1.49,0,0,0-1.48-1.5H14V15.4a1.49,1.49,0,0,0-1.47-1.5,1.47,1.47,0,0,0-1,.44L1.21,24.83a1.53,1.53,0,0,0,0,2.12L11.52,37.44a1.47,1.47,0,0,0,1,.44,1.34,1.34,0,0,0,.56-.12A1.49,1.49,0,0,0,14,36.38v-4.5H24.34a1.5,1.5,0,0,0,0-3H12.56a1.48,1.48,0,0,0-1.47,1.49v2.38L4.34,25.89,11.09,19v2.38a1.49,1.49,0,0,0,1.47,1.5H28.75v4.5a1.49,1.49,0,0,0,1.47,1.5,1.45,1.45,0,0,0,1-.44L41.57,18A1.53,1.53,0,0,0,41.57,15.84Z"/><path class="cls-2" d="M23.55,28.1H11.78a1.49,1.49,0,0,0-1.48,1.5V32L3.55,25.1l6.75-6.87v2.38a1.49,1.49,0,0,0,1.48,1.5H22.41a10.14,10.14,0,0,0-2.41-3H13.25v-4.5a1.49,1.49,0,0,0-1.47-1.5,1.45,1.45,0,0,0-1,.44L.43,24a1.53,1.53,0,0,0,0,2.12l10.31,10.5a1.44,1.44,0,0,0,1,.43,1.22,1.22,0,0,0,.56-.11,1.5,1.5,0,0,0,.91-1.38V31.1h10.3a1.5,1.5,0,0,0,0-3Z"/><path class="cls-3" d="M30.48,27.66,40.79,17.17a1.53,1.53,0,0,0,0-2.12L30.48,4.56a1.46,1.46,0,0,0-2.08,0A1.49,1.49,0,0,0,28,5.62v4.5H17.66a1.5,1.5,0,0,0,0,3H29.44a1.48,1.48,0,0,0,1.47-1.49V9.24l6.75,6.87L30.91,23V20.61a1.49,1.49,0,0,0-1.47-1.5H20a10.14,10.14,0,0,1,2.41,3H28V26.6a1.49,1.49,0,0,0,1.47,1.5A1.47,1.47,0,0,0,30.48,27.66Z"/></svg>