<svg xmlns="http://www.w3.org/2000/svg" viewBox="0 0 42 42"><path d="M38.77,10.23,25.23,2.41a.87.87,0,0,0-1.28,1,.84.84,0,0,0,.41.55l13.1,7.57v18.7L23.37,38.32c-.41-.44-.9-.68-1.31-.45C20.86,38.53,19,42,19,42s3.7-.18,4.89-.84c.4-.22.46-.74.32-1.31l14.56-8.4a.89.89,0,0,0,.44-.76V11A.89.89,0,0,0,38.77,10.23Z" style="fill:#165129"/><path d="M33.21,25.18v0Z" style="fill:#3c2a18"/><path d="M33.27,20.47v0h0Z" style="fill:#3c2a18"/><polygon points="26.87 24.38 26.86 24.38 26.86 24.38 26.87 24.38" style="fill:#3c2a18"/><polygon points="32.13 38.78 32.13 38.78 32.13 38.78 32.13 38.78" style="fill:#3c2a18"/><polygon points="31.75 29.45 31.75 29.45 31.75 29.45 31.75 29.45" style="fill:#3c2a18"/><path d="M36.71,37.82l-.29,0h-.08a1.59,1.59,0,0,1-1.23-.66c-.29-.39-1.12-.1-.72.73s-.07,1.46-.88,1.34a4.56,4.56,0,0,1-.87-.22h0a4,4,0,0,1-.5-.2h0c-.39,0-.85-.5-1.24-.86v-.05h0c-.1,0-.21-.26-.3-.37v0h0a3.4,3.4,0,0,1-.9-2A1,1,0,0,1,29.8,35h0c0-.65.39-1,.58-1.72h0c0-.14,0-.31.07-.45h.12A4.7,4.7,0,0,1,31,31.24a9.65,9.65,0,0,1,.41-1.11s0-.11,0-.11l.28-.58h0v0a14.71,14.71,0,0,0,.94-2.34v0a1.21,1.21,0,0,1,0-.18,1.55,1.55,0,0,0,.07-.23c0-.12.08-.24.11-.36v0h0c0-.05,0-.1,0-.14l.12-.52,0,0h0l0-.13.06-.35s0,0,0,0,0,0,0,.05a1.94,1.94,0,0,0,0-.24v-.09h0a.13.13,0,0,0,0-.06c0-.09,0-.17,0-.25h0a9.49,9.49,0,0,0,1.18-.45c1.66-.8,2.14-1.75,2.22-2.29v-.09a.13.13,0,0,0,0-.06v0a.17.17,0,0,1,0-.07h0a.37.37,0,0,0-.06-.14c-.19-.22-.84,1.18-3.38,1.54,0,0,0-.13,0-.34a5.82,5.82,0,0,0,1.13-.33c2-.81,2.21-2.05,2.06-2.27s-.81,1-3,1.13h-.17c0-.19,0-.39-.06-.61v0h0a4.41,4.41,0,0,0-.16-.86v-.05h0c0-.15-.09-.32-.14-.48s-.09-.26-.15-.4v-.12h0c-.09,0-.19-.41-.31-.67V18h0q-.2-.43-.42-.9h0a21,21,0,0,0-1-1.91h0a13.86,13.86,0,0,0-.85-1.22h0l0,0a7.44,7.44,0,0,0-.49-.58h0a4.07,4.07,0,0,0-1.08-.86c-1.83-.95-3.1-3.21-3.89-4.62s-1.53-3.15-4.12-2.58a15.87,15.87,0,0,1-3.35.58l-.08,0a5.16,5.16,0,0,1-1.35-.26h0l-.13-.06-.1,0h0l-.24-.09-.61-.22h0l-.16-.06L14.32,5l-.11,0h-.13L3.67,11v19.7l1.6.93.85-.28h0a6.91,6.91,0,0,0,.06.83l5.71,3.3c.13-.38.27-.73.42-1.06v0h0c.13-.28.25-.53.38-.75l0,0h0a.3.3,0,0,1,.05-.15c.06-.18.2-.57.48-1.4,1.38.82,2.44,1.31,2.57.93a26.68,26.68,0,0,1,1.84-3.41c2.22-1.21,4.27-3,5-4.81.22-.56.44-1.18.63-1.79a1.85,1.85,0,0,0,.52.33c.42.15.49-.22.49-.22v0h0l.06,0h0a.35.35,0,0,0,.09.07l0,0,.11.08,0,0,.17.11,0,0,.18.11.05,0,.25.13,0,0,.26.13.06,0c.21.1.44.2.69.29l.07,0,.41.15c.25.08.52.15.8.22a16,16,0,0,1-.09,3.21h0a21.35,21.35,0,0,1-.44,2.4c-.93,3.76-1.07,4.62,0,7.17a6.54,6.54,0,0,0,6,4.07A3.81,3.81,0,0,0,36.7,39.6c.22-.35.41-.9.72-.93S37.66,37.87,36.71,37.82Zm-16-14.51c-1.18,1.22-2.07,1.13-2.21,1.46s-.33,1.36-.61,1.92a3.59,3.59,0,0,1-1.08,1.09s-.1.32-1.6.32A3.79,3.79,0,0,1,12.69,27a12.51,12.51,0,0,1-2.6-1.74C8.54,24,8.73,22.65,8.45,22.51s-.66.47-1,.7-1.41.1-1.41.1l-1.8.33V11.33h0L8.29,9l.34.25c.95.78,1,2.14,1.27,2.29s.64.58,1.13.58a2.64,2.64,0,0,0,1.36-.76,1.72,1.72,0,0,0,.32-.89,3.52,3.52,0,0,1,.52.66c.14.29.09.46.52.2A7.64,7.64,0,0,0,15,10.05s.4,0,.14,1.77-1.24,1.59-1.56,1.65-.78.2-.64.34a2.09,2.09,0,0,1,.49,1.1c.15.67.44,2,.67,2.72a2.42,2.42,0,0,0,1.47,1.62c.7.18,1.31-.78,1.45-1.07s.67-.14.67.47-.49,1.5-.29,1.76a1.84,1.84,0,0,0,1.88.23,14.79,14.79,0,0,0,3.88-2.37,6.11,6.11,0,0,0,.9-1.74C24.28,19.91,21.89,22.09,20.72,23.31Z" style="fill:#3c2a18"/><path d="M17.69,37.78,4.54,30.19V11.49l13.34-7.7a1,1,0,0,0,1.2.34C20.27,3.47,22.14,0,22.14,0s-3.71.18-4.9.84c-.43.24-.46.84-.27,1.46L3.23,10.23a.89.89,0,0,0-.44.76v19.7a.89.89,0,0,0,.44.76l13.58,7.84a.84.84,0,0,0,.43.11.87.87,0,0,0,.45-1.62Z" style="fill:#987859"/></svg>