<svg id="Layer_1" data-name="Layer 1" xmlns="http://www.w3.org/2000/svg" viewBox="0 0 42 42"><defs><style>.cls-1{fill:#233d7c;}.cls-2{fill:#f2a91f;}</style></defs><title>icon-sirius-mosaics-v6</title><polygon class="cls-1" points="11.56 42 22.24 21.5 30.71 0 19.66 20.33 11.56 42"/><polygon class="cls-2" points="7.99 8.15 19.85 21.43 34.07 34.09 21.45 19.84 7.99 8.15"/><polygon class="cls-1" points="13.56 7.66 20.73 21.28 28.55 34.56 21.48 20.87 13.56 7.66"/><polygon class="cls-1" points="7.75 28.79 22.2 21.39 34.55 13.46 20.85 19.84 7.75 28.79"/><polygon class="cls-1" points="23.18 23.24 42 21.07 23.18 18.9 21 0.18 18.82 18.9 0 21.07 18.82 23.24 21 41.95 23.18 23.24"/><polygon class="cls-2" points="8.1 34.09 21.45 21.43 34.18 8.15 20.72 20.71 8.1 34.09"/><polygon class="cls-2" points="21.86 21.93 34.83 21.07 21.86 20.21 21 7.31 20.14 20.21 7.17 21.07 20.14 21.93 21 34.83 21.86 21.93"/></svg>