<svg id="Layer_1" data-name="Layer 1" xmlns="http://www.w3.org/2000/svg" viewBox="0 0 42 42"><defs><style>.cls-1{fill:#f2a91f;}.cls-2{fill:#cb892a;}.cls-3{fill:#010101;}.cls-4{fill:#fff;}.cls-5{fill:#124169;}.cls-6{fill:#112046;}.cls-7{fill:#231f20;}</style></defs><title>icon-sirius-mosaics copy 4</title><polygon class="cls-1" points="35 21 41.47 25.67 33.61 27.07 37.42 34.09 29.73 31.95 30.11 39.92 24.11 34.65 21 42 17.89 34.65 11.89 39.92 12.27 31.95 4.58 34.09 8.39 27.07 0.53 25.67 7 21 0.53 16.33 8.39 14.93 4.58 7.91 12.27 10.05 11.89 2.08 17.89 7.35 21 0 24.11 7.35 30.11 2.08 29.73 10.05 37.42 7.91 33.61 14.93 41.47 16.33 35 21"/><polygon class="cls-2" points="21 0 21 21 24.11 7.35 21 0"/><polygon class="cls-2" points="30.11 2.08 21 21 29.73 10.05 30.11 2.08"/><polygon class="cls-2" points="37.42 7.91 21 21 33.61 14.93 37.42 7.91"/><polygon class="cls-2" points="41.47 16.33 21 21 35 21 41.47 16.33"/><polygon class="cls-2" points="41.47 25.67 21 21 33.61 27.07 41.47 25.67"/><polygon class="cls-2" points="37.42 34.09 21 21 29.73 31.95 37.42 34.09"/><polygon class="cls-2" points="30.11 39.92 21 21 24.11 34.65 30.11 39.92"/><polygon class="cls-2" points="21 42 21 21 17.89 34.65 21 42"/><polygon class="cls-2" points="11.89 39.92 21 21 12.27 31.95 11.89 39.92"/><polygon class="cls-2" points="4.58 34.09 21 21 8.39 27.07 4.58 34.09"/><polygon class="cls-2" points="0.53 25.67 21 21 7 21 0.53 25.67"/><polygon class="cls-2" points="0.53 16.33 21 21 8.39 14.93 0.53 16.33"/><polygon class="cls-2" points="4.58 7.91 21 21 12.27 10.05 4.58 7.91"/><polygon class="cls-2" points="11.89 2.08 21 21 17.89 7.35 11.89 2.08"/><circle class="cls-3" cx="21.1" cy="21.1" r="9.9"/><circle class="cls-4" cx="20.9" cy="20.9" r="9.9"/><path class="cls-3" d="M29.25,20.74a8.5,8.5,0,1,1-8.5-8.5A8.5,8.5,0,0,1,29.25,20.74Z"/><path class="cls-5" d="M29.39,20.89a8.5,8.5,0,1,1-8.49-8.5A8.5,8.5,0,0,1,29.39,20.89Z"/><path class="cls-6" d="M27.81,17A7.94,7.94,0,1,0,16.44,27.47,12.52,12.52,0,0,1,27.81,17Z"/><path class="cls-7" d="M26.64,17.86a5.59,5.59,0,0,0-2.39.76c-1,.55-1,.55-.49,1.77q.18.43.33.87c.11.29.22.59.31.89a17.12,17.12,0,0,1,.5,1.77,11.06,11.06,0,0,0,1.81-6.06Z"/><path class="cls-7" d="M22.32,17.67a1.93,1.93,0,0,0,.65-.13,7.28,7.28,0,0,1,3.44-.21,12.27,12.27,0,0,0-5.19-1.18c-.27,0-.54,0-.8,0a4.78,4.78,0,0,1,1.07.81C21.68,17.18,22.06,17.62,22.32,17.67Z"/><path class="cls-7" d="M19,19.91c.43-.34.85-.69,1.3-1a3.07,3.07,0,0,0,.28-.2.28.28,0,0,0,.11-.16.56.56,0,0,0,0-.24c-.1-.24-.4-.64-.55-.9a5.36,5.36,0,0,0-.34-.49l-.32-.4-.16-.19a12.6,12.6,0,0,0-3.38,1.09l-.17.08v.19a11,11,0,0,0,.89,4.53,14,14,0,0,1,1-1A18.51,18.51,0,0,1,19,19.91Z"/><path class="cls-7" d="M23.06,22l-.3-.49a3.13,3.13,0,0,0-.21-.34c-.07-.09-.13-.2-.2-.3h0s-.39-.62-.62-.72a.48.48,0,0,0-.22,0,2.17,2.17,0,0,0-.73.27,20.06,20.06,0,0,0-3.89,2.4,11.08,11.08,0,0,0,4.17,4.53l.16.09.15-.09a11.14,11.14,0,0,0,3-2.69c-.28-.7-.62-1.35-.85-1.81C23.39,22.55,23.22,22.27,23.06,22Z"/><path class="cls-4" d="M26.21,17.48a5.68,5.68,0,0,0-2.4.76c-.95.55-1,.55-.48,1.77.12.29.23.57.33.87s.21.59.31.89c.18.57.36,1.17.5,1.77a11.06,11.06,0,0,0,1.81-6.06Z"/><path class="cls-4" d="M21.89,17.29a1.82,1.82,0,0,0,.64-.13A7.28,7.28,0,0,1,26,17a12.24,12.24,0,0,0-5.19-1.18l-.8,0a4.63,4.63,0,0,1,1.08.81C21.25,16.8,21.63,17.24,21.89,17.29Z"/><path class="cls-4" d="M18.55,19.53c.43-.35.85-.69,1.3-1a3.07,3.07,0,0,0,.27-.2.33.33,0,0,0,.12-.17.49.49,0,0,0,0-.23c-.09-.25-.4-.64-.54-.91s-.24-.33-.35-.48-.2-.27-.31-.4-.11-.12-.16-.19A12.6,12.6,0,0,0,15.46,17l-.17.08v.19a11,11,0,0,0,.88,4.52c.32-.37.67-.73,1-1A18.65,18.65,0,0,1,18.55,19.53Z"/><path class="cls-4" d="M22.63,21.62l-.3-.5-.21-.33a3.13,3.13,0,0,1-.2-.3h0s-.38-.62-.61-.72a.55.55,0,0,0-.23,0,2.34,2.34,0,0,0-.73.27,20.64,20.64,0,0,0-2.07,1.13,19.32,19.32,0,0,0-1.82,1.27A11,11,0,0,0,20.63,27l.15.09.16-.09a11.14,11.14,0,0,0,3-2.69c-.29-.7-.62-1.35-.86-1.81C23,22.17,22.79,21.89,22.63,21.62Z"/></svg>