<svg id="Layer_1" data-name="Layer 1" xmlns="http://www.w3.org/2000/svg" viewBox="0 0 42 42"><defs><style>.cls-1{fill:#231f20;}.cls-2{fill:#44b291;}</style></defs><title>icon-receive-transactions</title><path class="cls-1" d="M34.29,24.94H20.6a1.72,1.72,0,0,0-1.71,1.74v2.77l-7.85-8,7.85-8v2.76A1.72,1.72,0,0,0,20.6,18H33a11.51,11.51,0,0,0-2.8-3.48H22.31V9.26A1.73,1.73,0,0,0,20.6,7.52,1.69,1.69,0,0,0,19.39,8l-12,12.19a1.77,1.77,0,0,0,0,2.47l12,12.19a1.71,1.71,0,0,0,1.87.38,1.75,1.75,0,0,0,1-1.61V28.42h12a1.74,1.74,0,0,0,0-3.48Z"/><path class="cls-2" d="M33.38,24H19.69A1.72,1.72,0,0,0,18,25.77v2.76l-7.85-8,7.85-8v2.77a1.72,1.72,0,0,0,1.71,1.74H32.05a11.82,11.82,0,0,0-2.8-3.48H21.4V8.35a1.73,1.73,0,0,0-1.71-1.74,1.67,1.67,0,0,0-1.21.51L6.5,19.31a1.77,1.77,0,0,0,0,2.47L18.48,34a1.67,1.67,0,0,0,1.21.51,1.61,1.61,0,0,0,.65-.13,1.75,1.75,0,0,0,1.06-1.61V27.51h12a1.74,1.74,0,0,0,0-3.48Z"/></svg>