<svg xmlns="http://www.w3.org/2000/svg" viewBox="0 0 42 42"><path d="M2,22.26a2.29,2.29,0,1,1,2.59-1.94A2.3,2.3,0,0,1,2,22.26" style="fill:#004b93"/><path d="M2.73,17A3,3,0,0,1,5.32,19.7a2.55,2.55,0,0,1,0,.73,3,3,0,0,1-1.19,2,3.08,3.08,0,0,1-1.75.6,16.79,16.79,0,0,0,1.41,5.12s5-2.15,6-8.89a13.27,13.27,0,0,0,0-4A11.25,11.25,0,0,1,3.33,15L3.2,15c-.21.63-.4,1.31-.56,2h.09" style="fill:#004b93"/><path d="M36.21,10.28a2.29,2.29,0,1,1,.11-3.23,2.28,2.28,0,0,1-.11,3.23" style="fill:#fcbb30"/><path d="M26.62,10a12.57,12.57,0,0,1-.28-1.84,10.92,10.92,0,0,1,.57-4.67h0a17.84,17.84,0,0,0-2.43-.68,3,3,0,0,1-.92,1.72,3,3,0,0,1-2.18.82,3,3,0,0,1-2.13-1,3.06,3.06,0,0,1-.8-1.78,16.13,16.13,0,0,0-4.68,1.28s2.07,5,8.79,6.08a13.21,13.21,0,0,0,4.06,0" style="fill:#004b93"/><path d="M23,4A2.29,2.29,0,1,1,23.15.72,2.29,2.29,0,0,1,23,4" style="fill:#004b93"/><path d="M14.26,12a13.07,13.07,0,0,0,3-2.85,11.45,11.45,0,0,1-4.44-4.8,16.43,16.43,0,0,0-1.93,1l0,0a3,3,0,0,1-.41,4.29,3.06,3.06,0,0,1-4.21-.32A16.65,16.65,0,0,0,3.7,13.63s5,2.19,10.56-1.68" style="fill:#004b93"/><path d="M10.37,5.83a2.29,2.29,0,1,1-3.22-.31,2.29,2.29,0,0,1,3.22.31" style="fill:#004b93"/><path d="M36.5,11a3,3,0,0,1-3.76-.07,2.85,2.85,0,0,1-.51-.53,3,3,0,0,1-.59-2.26,3.09,3.09,0,0,1,.81-1.67,16.6,16.6,0,0,0-4.63-2.59s-2,5,2.13,10.48a13,13,0,0,0,2.88,2.83,11.36,11.36,0,0,1,4.65-4.38l.12,0a18.89,18.89,0,0,0-1-1.82L36.5,11" style="fill:#fcbb30"/><path d="M15.12,32a12.59,12.59,0,0,1,.29,1.84,11,11,0,0,1-.58,4.67h0a17.84,17.84,0,0,0,2.43.68,3.05,3.05,0,0,1,5.24-1.57,3.13,3.13,0,0,1,.8,1.78A16.47,16.47,0,0,0,28,38.18s-2.06-5-8.79-6.09A12.93,12.93,0,0,0,15.12,32" style="fill:#004b93"/><path d="M18.69,38.12a2.29,2.29,0,1,1-.1,3.23,2.29,2.29,0,0,1,.1-3.23" style="fill:#004b93"/><path d="M24.61,32.7a13.19,13.19,0,0,1,1.5,1.11A10.83,10.83,0,0,1,29,37.55h0a18.19,18.19,0,0,0,2.21-1.22,3,3,0,0,1,2.62-4.79,3.09,3.09,0,0,1,1.82.7,16.22,16.22,0,0,0,2.44-4.19s-5-2.11-10.53,1.83a13,13,0,0,0-2.93,2.82" style="fill:#004b93"/><path d="M31.42,34.52a2.29,2.29,0,1,1,2.2,2.37,2.29,2.29,0,0,1-2.2-2.37" style="fill:#004b93"/><path d="M9,24.8A11.58,11.58,0,0,1,8,26.31a10.82,10.82,0,0,1-3.71,2.9h0a19.15,19.15,0,0,0,1.24,2.2,3,3,0,0,1,1.87-.57A3,3,0,0,1,10.29,34a3.06,3.06,0,0,1-.69,1.83,16.56,16.56,0,0,0,4.22,2.4s2.06-5-1.93-10.52A13.56,13.56,0,0,0,9,24.8" style="fill:#004b93"/><path d="M7.29,31.63a2.29,2.29,0,1,1-2.35,2.22,2.29,2.29,0,0,1,2.35-2.22" style="fill:#004b93"/><path d="M32,26.77a12.57,12.57,0,0,1,1.84-.28,11,11,0,0,1,4.67.6h0a17.68,17.68,0,0,0,.69-2.42,3.1,3.1,0,0,1-1.72-.94,3,3,0,0,1,2-5.1,16.51,16.51,0,0,0-1.25-4.69S33.13,16,32,22.71A13,13,0,0,0,32,26.77" style="fill:#004b93"/><path d="M38,23.22a2.29,2.29,0,1,1,3.23.12A2.29,2.29,0,0,1,38,23.22" style="fill:#004b93"/></svg>