<svg id="Layer_1" data-name="Layer 1" xmlns="http://www.w3.org/2000/svg" viewBox="0 0 42 42"><defs><style>.cls-1{fill:#010101;}.cls-2{fill:#fff;}.cls-3{fill:#124169;}.cls-4{fill:#112046;}.cls-5{fill:#f3a81d;}.cls-6{fill:#231f20;}</style></defs><title>icon-sirius-mosaics</title><circle class="cls-1" cx="21.16" cy="21.16" r="15.84"/><circle class="cls-2" cx="20.84" cy="20.84" r="15.84"/><path class="cls-1" d="M35.45,20.58A14.87,14.87,0,1,1,20.59,5.71,14.86,14.86,0,0,1,35.45,20.58Z"/><path class="cls-3" d="M35.71,20.83A14.87,14.87,0,1,1,20.84,6,14.86,14.86,0,0,1,35.71,20.83Z"/><path class="cls-4" d="M33,14a13.9,13.9,0,1,0-19.9,18.34A21.92,21.92,0,0,1,33,14Z"/><polygon points="24.86 21.79 31.3 21.13 25.06 20.79 39.15 10.7 23.71 18.43 26.35 12.83 22.84 18 21.48 0.72 20.12 17.93 16.7 12.78 19.3 18.46 3.81 10.7 18.1 20.93 11.66 21.59 17.89 21.94 3.81 32.03 19.24 24.29 16.6 29.89 20.12 24.73 21.48 42 22.83 24.79 26.26 29.94 23.66 24.27 39.15 32.03 24.86 21.79"/><polygon class="cls-5" points="23.9 21.07 30.34 20.41 24.11 20.06 38.19 9.97 22.76 17.71 25.4 12.11 21.88 17.27 20.52 0 19.17 17.21 15.74 12.06 18.34 17.73 2.85 9.97 17.14 20.21 10.7 20.87 16.94 21.21 2.85 31.3 18.29 23.57 15.65 29.17 19.16 24 20.52 41.28 21.88 24.07 25.3 29.22 22.7 23.54 38.19 31.3 23.9 21.07"/><path class="cls-6" d="M24.63,18.48A4,4,0,0,0,23,19c-.66.38-.7.39-.34,1.24.09.2.16.4.24.61l.21.62a12.6,12.6,0,0,1,.35,1.24,7.76,7.76,0,0,0,1.27-4.24Z"/><path class="cls-6" d="M21.61,18.34a1.13,1.13,0,0,0,.45-.09,5.07,5.07,0,0,1,2.41-.14,8.5,8.5,0,0,0-3.64-.83l-.56,0a3.09,3.09,0,0,1,.76.57C21.16,18,21.42,18.31,21.61,18.34Z"/><path class="cls-6" d="M19.27,19.91c.3-.24.59-.48.91-.71a1.82,1.82,0,0,0,.19-.14.2.2,0,0,0,.05-.28,4.79,4.79,0,0,0-.38-.63,2.62,2.62,0,0,0-.24-.34l-.22-.29-.11-.12a8.61,8.61,0,0,0-2.37.75l-.11.06v.13a7.71,7.71,0,0,0,.63,3.17,9.36,9.36,0,0,1,.67-.71A11.87,11.87,0,0,1,19.27,19.91Z"/><path class="cls-6" d="M22.12,21.38a4.05,4.05,0,0,0-.21-.35,1.76,1.76,0,0,0-.14-.23l-.15-.21h0s-.27-.43-.43-.5a.39.39,0,0,0-.16,0,2,2,0,0,0-.51.18c-.35.17-1,.49-1.45.79s-.84.55-1.27.89a7.77,7.77,0,0,0,2.92,3.18l.11.06.11-.06a7.66,7.66,0,0,0,2.11-1.89c-.2-.49-.43-.94-.59-1.26S22.23,21.57,22.12,21.38Z"/><path class="cls-2" d="M24.32,18.21a3.9,3.9,0,0,0-1.67.53c-.67.39-.71.39-.34,1.25.08.19.16.4.23.6s.15.41.22.62c.13.41.25.82.35,1.24a7.85,7.85,0,0,0,1.27-4.24Z"/><path class="cls-2" d="M21.3,18.08a1.24,1.24,0,0,0,.45-.09,5,5,0,0,1,2.41-.15A8.56,8.56,0,0,0,20.53,17H20a3.9,3.9,0,0,1,.75.57C20.85,17.73,21.12,18,21.3,18.08Z"/><path class="cls-2" d="M19,19.64c.3-.23.6-.48.91-.71l.2-.14a.22.22,0,0,0,.08-.11.42.42,0,0,0,0-.17,6.2,6.2,0,0,0-.38-.63,2.62,2.62,0,0,0-.24-.34l-.22-.28-.12-.13a8.68,8.68,0,0,0-2.36.76l-.12.06v.13a7.76,7.76,0,0,0,.62,3.17c.23-.27.47-.51.68-.72S18.62,19.91,19,19.64Z"/><path class="cls-2" d="M21.82,21.11l-.21-.35c-.05-.07-.09-.16-.15-.23l-.14-.21h0s-.27-.44-.43-.5a.27.27,0,0,0-.16,0,1.6,1.6,0,0,0-.51.19,14.25,14.25,0,0,0-2.72,1.68,7.68,7.68,0,0,0,2.92,3.17l.11.07.11-.07A7.77,7.77,0,0,0,22.75,23c-.2-.49-.43-.95-.6-1.27S21.93,21.3,21.82,21.11Z"/></svg>