<svg id="Layer_1" data-name="Layer 1" xmlns="http://www.w3.org/2000/svg" viewBox="0 0 42 42"><defs><style>.cls-1{fill:#010101;}.cls-2{fill:#fff;}.cls-3{fill:#245d68;}.cls-4{fill:#0f3738;}.cls-5{fill:#f3a81d;}.cls-6{fill:#cbcbcb;}</style></defs><title>icon-aggregate-bonded</title><circle class="cls-1" cx="21.21" cy="21.21" r="20.79"/><circle class="cls-2" cx="20.79" cy="20.79" r="20.79"/><path class="cls-1" d="M40,20.44A19.52,19.52,0,1,1,20.46.93,19.52,19.52,0,0,1,40,20.44Z"/><path class="cls-3" d="M40.31,20.78A19.52,19.52,0,1,1,20.8,1.27,19.52,19.52,0,0,1,40.31,20.78Z"/><path class="cls-4" d="M36.68,11.82A18.24,18.24,0,1,0,10.56,35.89,28.77,28.77,0,0,1,36.68,11.82Z"/><path class="cls-1" d="M15.7,10.42a3.39,3.39,0,1,0,3.38,3.38A3.38,3.38,0,0,0,15.7,10.42Zm0,5.88a2.5,2.5,0,1,1,2.5-2.5A2.5,2.5,0,0,1,15.7,16.3Z"/><path class="cls-1" d="M15.7,18.29a3.38,3.38,0,1,0,3.38,3.38A3.38,3.38,0,0,0,15.7,18.29Zm0,5.88a2.5,2.5,0,1,1,2.5-2.5A2.5,2.5,0,0,1,15.7,24.17Z"/><path class="cls-1" d="M15.7,25.86a3.39,3.39,0,1,0,3.38,3.39A3.38,3.38,0,0,0,15.7,25.86Zm0,5.89a2.5,2.5,0,1,1,2.5-2.5A2.51,2.51,0,0,1,15.7,31.75Z"/><path class="cls-1" d="M30.71,13.35l-3.18-1.83a.34.34,0,0,0-.51.3v.44a.34.34,0,0,1-.34.34H20.53a.34.34,0,0,0-.34.34v1.42a.34.34,0,0,0,.34.34h6.15A.34.34,0,0,1,27,15v.44a.34.34,0,0,0,.51.3L30.71,14A.36.36,0,0,0,30.71,13.35Z"/><path class="cls-1" d="M30.71,21.23,27.53,19.4a.34.34,0,0,0-.51.29v.44a.35.35,0,0,1-.34.35H20.53a.34.34,0,0,0-.34.34v1.41a.35.35,0,0,0,.34.35h6.15a.34.34,0,0,1,.34.34v.44a.34.34,0,0,0,.51.29l3.18-1.83A.35.35,0,0,0,30.71,21.23Z"/><path class="cls-1" d="M30.71,29.1l-3.18-1.83a.34.34,0,0,0-.51.3V28a.34.34,0,0,1-.34.34H20.53a.34.34,0,0,0-.34.34v1.42a.34.34,0,0,0,.34.34h6.15a.34.34,0,0,1,.34.34v.44a.34.34,0,0,0,.51.3l3.18-1.83A.36.36,0,0,0,30.71,29.1Z"/><path class="cls-2" d="M15.18,9.9a3.38,3.38,0,1,0,3.38,3.38A3.38,3.38,0,0,0,15.18,9.9Zm0,5.88a2.5,2.5,0,1,1,2.5-2.5A2.5,2.5,0,0,1,15.18,15.78Z"/><circle class="cls-5" cx="15.18" cy="13.28" r="1.88"/><path class="cls-2" d="M15.18,17.76a3.39,3.39,0,1,0,3.38,3.39A3.39,3.39,0,0,0,15.18,17.76Zm0,5.89a2.5,2.5,0,1,1,2.5-2.5A2.51,2.51,0,0,1,15.18,23.65Z"/><path class="cls-2" d="M15.18,25.34a3.38,3.38,0,1,0,3.38,3.38A3.38,3.38,0,0,0,15.18,25.34Zm0,5.88a2.5,2.5,0,1,1,2.5-2.5A2.5,2.5,0,0,1,15.18,31.22Z"/><polygon class="cls-5" points="15.67 27.15 14.71 27.15 14.71 28.26 13.6 28.26 13.6 29.22 14.71 29.22 14.71 30.33 15.67 30.33 15.67 29.22 16.79 29.22 16.79 28.26 15.67 28.26 15.67 27.15"/><polygon class="cls-5" points="15.67 19.62 14.71 19.62 14.71 20.73 13.6 20.73 13.6 21.69 14.71 21.69 14.71 22.81 15.67 22.81 15.67 21.69 16.79 21.69 16.79 20.73 15.67 20.73 15.67 19.62"/><path class="cls-5" d="M30.18,12.83,27,11a.34.34,0,0,0-.52.29v.44a.35.35,0,0,1-.34.35H20a.34.34,0,0,0-.34.34v1.41a.34.34,0,0,0,.34.34h6.14a.35.35,0,0,1,.34.35V15a.34.34,0,0,0,.52.29l3.17-1.83A.34.34,0,0,0,30.18,12.83Z"/><path class="cls-6" d="M30.18,20.7,27,18.87a.35.35,0,0,0-.52.3v.44a.34.34,0,0,1-.34.34H20a.34.34,0,0,0-.34.34v1.42a.34.34,0,0,0,.34.34h6.14a.34.34,0,0,1,.34.34v.44a.35.35,0,0,0,.52.3l3.17-1.83A.35.35,0,0,0,30.18,20.7Z"/><path class="cls-6" d="M30.18,28.58,27,26.75a.34.34,0,0,0-.52.29v.44a.35.35,0,0,1-.34.35H20a.34.34,0,0,0-.34.34v1.41a.35.35,0,0,0,.34.35h6.14a.34.34,0,0,1,.34.34v.44A.34.34,0,0,0,27,31l3.17-1.83A.34.34,0,0,0,30.18,28.58Z"/></svg>