<svg xmlns="http://www.w3.org/2000/svg" viewBox="0 0 42 42"><circle cx="21.21" cy="21.21" r="20.79" style="fill:#010101"/><circle cx="20.79" cy="20.79" r="20.79" style="fill:#f3f3f3"/><path d="M40,20.44A19.52,19.52,0,1,1,20.46.93,19.52,19.52,0,0,1,40,20.44Z" style="fill:#010101"/><path d="M40.31,20.78A19.52,19.52,0,1,1,20.8,1.27,19.52,19.52,0,0,1,40.31,20.78Z" style="fill:#124169"/><path d="M36.68,11.82A18.24,18.24,0,1,0,10.56,35.89,28.77,28.77,0,0,1,36.68,11.82Z" style="fill:#112046"/><path d="M16.6,18.54,9.15,15.09a.62.62,0,0,0-.88.57v8.17a.62.62,0,0,0,.32.55l7.45,4A.63.63,0,0,0,17,27.8V19.1A.62.62,0,0,0,16.6,18.54Z" style="fill:#fff"/><path d="M25.77,15.09l-7.45,3.45a.62.62,0,0,0-.37.56v8.7a.63.63,0,0,0,.92.55l7.45-4a.63.63,0,0,0,.33-.55V15.66A.62.62,0,0,0,25.77,15.09Z" style="fill:#c9c9c9"/><polygon points="10.33 9.61 10.33 9.61 10.33 9.61 10.33 9.61" style="fill:#f1a71e"/><path d="M18.29,10.88l1.43-.55-1.59-.62a2,2,0,0,0-.67-.13A6.63,6.63,0,0,1,18.29,10.88Z" style="fill:#fff"/><path d="M11.74,9.59a3.63,3.63,0,0,0,.79,1.61A16.73,16.73,0,0,0,15.38,13C14.41,10.85,12.77,9.68,11.74,9.59Z" style="fill:#eb8a23"/><path d="M12,11.75a1.31,1.31,0,0,1-.11-.12L9.18,12.69a.7.7,0,0,0,0,1.29l2.16,1A1.87,1.87,0,0,1,12,13.78a7,7,0,0,1,1.58-.91A8.5,8.5,0,0,1,12,11.75Z" style="fill:#fff"/><path d="M21.16,15.12c0-.14-.64-.67-2.13-.86l-.42,0a1.86,1.86,0,0,1-.47.32,9.63,9.63,0,0,0,1.45.59,4.5,4.5,0,0,0,1.57.11Z" style="fill:#eb8a23"/><polygon points="15.82 15.05 15.82 15.05 15.82 15.05 15.82 15.05" style="fill:#f1a71e"/><path d="M20.67,16a5.12,5.12,0,0,1-1.29-.16,11.31,11.31,0,0,1-1.58-.64l-.7-.34c-.68.32-1.33.64-1.87.92-.18.1-.07.59.1,1l1.83.85a.76.76,0,0,0,.59,0l3.41-1.58V16Z" style="fill:#fff"/><path d="M25.74,12.69,23.94,12l-.36.16-.23.09a2,2,0,0,1,1.12,1.38,1.5,1.5,0,0,1-.25,1.08L25.78,14A.7.7,0,0,0,25.74,12.69Z" style="fill:#fff"/><path d="M19.09,11.69a8.36,8.36,0,0,1,1.54-.15,5.69,5.69,0,0,1,1.75.26l.89-.39-2.06-.8-2.4.92a1.27,1.27,0,0,1,.13.19Z" style="fill:#eb8a23"/><path d="M22.73,12.77a5.75,5.75,0,0,0-3.5-.31,1.55,1.55,0,0,1,0,.31,2,2,0,0,1-.14.72c1.44.18,2.82.76,2.82,1.63l1.57-.78S24.3,13.55,22.73,12.77Z" style="fill:#f1a71e"/><path d="M14.39,13.35a8.77,8.77,0,0,0-1.86,1,1,1,0,0,0-.3,1.07l2,.91a1,1,0,0,1,.66-1.2l1.44-.67a1.54,1.54,0,0,1-.36-.27C15.68,14,15.06,13.72,14.39,13.35Z" style="fill:#f1a71e"/><path d="M17.3,10.81h.08a6.12,6.12,0,0,0-.93-1.18,4.86,4.86,0,0,0-3.14-1.57l-2,.74c1.19-.18,3,.89,4.31,3A1.93,1.93,0,0,1,17.3,10.81Z" style="fill:#f1a71e"/><circle cx="17.3" cy="12.77" r="1.18" style="fill:#eb8a23"/><path d="M26.39,26.06l2.47.89a.81.81,0,0,0-.06.31c0,.73.85,1.31,1.94,1.31s1.94-.58,1.94-1.31S31.83,26,30.74,26a2.5,2.5,0,0,0-1.33.35l-2.76-1a.4.4,0,0,0-.26.75Zm5.5,1.2c0,.2-.46.51-1.15.51s-1.14-.31-1.14-.51.45-.51,1.14-.51S31.89,27.06,31.89,27.26Z" style="fill:#fff"/><path d="M24.79,29.27a2.6,2.6,0,0,0-1.33.35l-2.76-1a.4.4,0,0,0-.5.24.39.39,0,0,0,.23.51l2.48.89a.81.81,0,0,0-.06.31c0,.73.85,1.31,1.94,1.31s1.94-.58,1.94-1.31S25.88,29.27,24.79,29.27Zm0,1.82c-.69,0-1.14-.31-1.14-.51s.45-.51,1.14-.51,1.14.31,1.14.51S25.48,31.09,24.79,31.09Z" style="fill:#fff"/><path d="M32.19,29.65a2.33,2.33,0,0,0-1.51.49L28,29.07,27.44,28a.41.41,0,0,0-.22-.21l-2.95-1.06a.41.41,0,0,0-.51.24.39.39,0,0,0,.24.51l2.79,1,.52,1.08a.41.41,0,0,0,.21.2l2.74,1.08s0,.09,0,.13c0,.73.86,1.31,1.94,1.31s1.94-.58,1.94-1.31S33.28,29.65,32.19,29.65Zm0,1.82c-.68,0-1.14-.31-1.14-.51a.36.36,0,0,0,.15-.19.17.17,0,0,0,0-.05,1.6,1.6,0,0,1,1-.27c.69,0,1.15.3,1.15.51S32.88,31.47,32.19,31.47Z" style="fill:#f1a71e"/></svg>