<svg id="Layer_1" data-name="Layer 1" xmlns="http://www.w3.org/2000/svg" viewBox="0 0 20 20"><defs><style>.cls-1{fill:#fff;fill-rule:evenodd;}</style></defs><title>menu-black copy</title><path class="cls-1" d="M20,2.86v.28A1.86,1.86,0,0,1,18.14,5H1.86A1.86,1.86,0,0,1,0,3.14V2.86A1.86,1.86,0,0,1,1.86,1H18.14A1.86,1.86,0,0,1,20,2.86ZM18.14,8H1.86A1.86,1.86,0,0,0,0,9.86v.28A1.86,1.86,0,0,0,1.86,12H18.14A1.86,1.86,0,0,0,20,10.14V9.86A1.86,1.86,0,0,0,18.14,8Zm0,7H1.86A1.86,1.86,0,0,0,0,16.86v.28A1.86,1.86,0,0,0,1.86,19H18.14A1.86,1.86,0,0,0,20,17.14v-.28A1.86,1.86,0,0,0,18.14,15Z"/></svg>