<svg id="Layer_1" data-name="Layer 1" xmlns="http://www.w3.org/2000/svg" viewBox="0 0 14 20"><defs><style>.cls-1{fill:#fff;fill-rule:evenodd;}</style></defs><title>receive-arrow-white</title><path class="cls-1" d="M13.5,17.74a1.21,1.21,0,0,1,.18,1.8,1.43,1.43,0,0,1-1.93.16L.5,11a1.21,1.21,0,0,1,0-2L11.75.3a1.43,1.43,0,0,1,1.93.16,1.21,1.21,0,0,1-.18,1.8L3.52,10ZM9.51,10l4.28-3.32a.52.52,0,0,0,.07-.77A.63.63,0,0,0,13,5.84L8.21,9.58a.53.53,0,0,0,0,.84L13,14.16a.67.67,0,0,0,.38.13.59.59,0,0,0,.45-.2.52.52,0,0,0-.07-.77Z"/></svg>