<svg id="Layer_1" data-name="Layer 1" xmlns="http://www.w3.org/2000/svg" viewBox="0 0 50 50"><defs><style>.cls-1{fill:#a2b1b3;}</style></defs><title>scan-qr-code-green-light</title><path class="cls-1" d="M0,6.15V.85A.86.86,0,0,1,.87,0H6.12A.86.86,0,0,1,7,.85a.86.86,0,0,1-.88.86H1.75V6.15A.86.86,0,0,1,.87,7,.86.86,0,0,1,0,6.15ZM49.13,0H43.88A.86.86,0,0,0,43,.85a.86.86,0,0,0,.88.86h4.37V6.15a.88.88,0,0,0,1.75,0V.85A.86.86,0,0,0,49.13,0Zm0,43a.86.86,0,0,0-.88.85v4.44H43.88a.86.86,0,1,0,0,1.71h5.25a.86.86,0,0,0,.87-.85v-5.3A.86.86,0,0,0,49.13,43Zm-43,5.29H1.75V43.85A.86.86,0,0,0,.87,43a.86.86,0,0,0-.87.85v5.3A.86.86,0,0,0,.87,50H6.12a.86.86,0,1,0,0-1.71ZM44,25.11a1,1,0,0,0-1-1H25.9V7a1,1,0,1,0-2,0V24.14H11a1,1,0,1,0,0,1.95h13V43a1,1,0,1,0,2,0V26.09H43A1,1,0,0,0,44,25.11ZM6.8,25h0A1,1,0,0,0,6,26.23,1,1,0,0,0,7,27a.91.91,0,0,0,.23,0h0A1,1,0,0,0,8,25.77,1,1,0,0,0,6.8,25ZM6,7V21a1,1,0,0,0,1,1H21a1,1,0,0,0,1-1V18.34a1,1,0,1,0-2,0V20H8V8H20v2.43a1,1,0,1,0,2,0V7a1,1,0,0,0-1-1H7A1,1,0,0,0,6,7Zm9,3a1,1,0,0,1,1,1v4a1,1,0,0,1-1,1H11a1,1,0,0,1-1-1V11a1,1,0,0,1,1-1Zm-1,1.95H12v2.1h2.1ZM19.8,13h-.05A1,1,0,0,0,19,14.23,1,1,0,0,0,20,15a.91.91,0,0,0,.23,0h.05A1,1,0,0,0,21,13.77,1,1,0,0,0,19.8,13ZM28,21V7a1,1,0,0,1,1-1H43a1,1,0,0,1,1,1V21a1,1,0,0,1-1,1H29A1,1,0,0,1,28,21Zm2-1H42V8H30Zm10-9v4a1,1,0,0,1-1,1H35a1,1,0,0,1-1-1V11a1,1,0,0,1,1-1h4A1,1,0,0,1,40,11Zm-2,1H36v2.1h2.1ZM34,39V35a1,1,0,0,1,1-1h4a1,1,0,0,1,1,1v4a1,1,0,0,1-1,1H35A1,1,0,0,1,34,39Zm2-1h2.1V36H36Zm7,6H29a1,1,0,0,1-1-1V29a1,1,0,0,1,1-1H43a1,1,0,0,1,1,1V43A1,1,0,0,1,43,44ZM42,30H30V42H42ZM22,29V43a1,1,0,0,1-1,1H7a1,1,0,0,1-1-1V29a1,1,0,0,1,1-1H21A1,1,0,0,1,22,29Zm-2,1H8V42H20ZM10,39V35a1,1,0,0,1,1-1h4a1,1,0,0,1,1,1v4a1,1,0,0,1-1,1H11A1,1,0,0,1,10,39Zm1.95-1h2.1V36H12Z"/></svg>