<svg id="Layer_1" data-name="Layer 1" xmlns="http://www.w3.org/2000/svg" viewBox="0 0 72 72"><defs><style>.cls-1{fill:#7ab4e2;}.cls-2{opacity:0.2;}.cls-3{fill:#fff;fill-rule:evenodd;}</style></defs><title>select-colour-card-blue</title><rect class="cls-1" width="72" height="72" rx="6"/><g class="cls-2"><path class="cls-3" d="M61.93,63.76c-2.33-5.57-5-10.78-7-14.46-1.17-2.2-2.58-4.45-3.88-6.6q-1.22-2-2.44-4c-.55-.87-1.13-1.82-1.74-2.64s-1.1-1.61-1.66-2.41l0,0s-3.14-4.93-5-5.7a4.2,4.2,0,0,0-1.85-.19c-1.75.13-4.16,1.3-6,2.14a176.87,176.87,0,0,0-17,9C11.24,41.45,5.57,45.17.5,49.06A89,89,0,0,0,17.41,72H54.48A90.52,90.52,0,0,0,61.93,63.76Z"/><path class="cls-3" d="M6.16,36.07A152.68,152.68,0,0,1,17.64,26c3.52-2.73,7-5.51,10.63-8.1.83-.59,1.31-.83,2.28-1.61A2.56,2.56,0,0,0,31.48,15a3.74,3.74,0,0,0-.29-1.89c-.74-2-3.26-5.12-4.45-7.22A37.2,37.2,0,0,0,23.92,2c-.51-.67-1-1.34-1.58-2H8.12Q4.7,1,1.35,2.21A6,6,0,0,0,0,6V42.28C2.09,40,4.22,37.9,6.16,36.07Z"/><path class="cls-3" d="M72,47.84V11a80,80,0,0,0-11.24,4.68c-7.8,4.39-8.24,4.44-4,14.19,1,2.28,1.89,4.57,2.73,6.89s1.72,4.73,2.51,7.12c1.52,4.58,3,9.35,4.1,14.15A87.42,87.42,0,0,0,72,47.84Z"/><path class="cls-3" d="M45,8.1c1.63.27,4-.69,5.27-1C60,4.37,65.44,4.25,71.88,4.79a6,6,0,0,0-1.21-2.55C68.41,1.41,66.12.67,63.81,0H35.17a35,35,0,0,1,3.06,2.69C39.75,4.2,42.86,7.74,45,8.1Z"/></g></svg>