<svg id="Layer_1" data-name="Layer 1" xmlns="http://www.w3.org/2000/svg" viewBox="0 0 14 20"><defs><style>.cls-1{fill:#fff;fill-rule:evenodd;}</style></defs><title>send-arrow-white</title><path class="cls-1" d="M14,10a1.22,1.22,0,0,1-.5,1L2.25,19.7a1.43,1.43,0,0,1-1.93-.16,1.21,1.21,0,0,1,.18-1.8l10-7.74L.5,2.26A1.21,1.21,0,0,1,.32.46,1.43,1.43,0,0,1,2.25.3L13.5,9A1.22,1.22,0,0,1,14,10ZM.14,14.09a.63.63,0,0,0,.83.07l4.82-3.74a.53.53,0,0,0,0-.84L1,5.84a.67.67,0,0,0-.38-.13.59.59,0,0,0-.45.2.52.52,0,0,0,.07.77L4.49,10,.21,13.32A.52.52,0,0,0,.14,14.09Z"/></svg>