<svg id="Layer_1" data-name="Layer 1" xmlns="http://www.w3.org/2000/svg" viewBox="0 0 14 20"><defs><style>.cls-1{fill:#a2b1b3;fill-rule:evenodd;}</style></defs><title>send-arrow-green-light</title><path class="cls-1" d="M1.37,0a1.42,1.42,0,0,1,.88.3L13.5,9a1.21,1.21,0,0,1,0,2L2.25,19.7a1.43,1.43,0,0,1-1.93-.16,1.21,1.21,0,0,1,.18-1.8l10-7.74L.5,2.26A1.21,1.21,0,0,1,.32.46,1.42,1.42,0,0,1,1.37,0"/><path class="cls-1" d="M.59,5.71A.67.67,0,0,1,1,5.84L5.79,9.58a.53.53,0,0,1,0,.84L1,14.16a.63.63,0,0,1-.83-.07.52.52,0,0,1,.07-.77L4.49,10,.21,6.68a.52.52,0,0,1-.07-.77.59.59,0,0,1,.45-.2"/></svg>