<svg id="Layer_1" data-name="Layer 1" xmlns="http://www.w3.org/2000/svg" viewBox="0 0 80 80"><defs><style>.cls-1{fill:#fff;fill-rule:evenodd;}</style></defs><title>shell-background-cards</title><path class="cls-1" d="M69.38,62.25c-2.27-5.44-4.93-10.54-6.83-14.13C61.41,46,60,43.76,58.75,41.67q-1.17-2-2.38-3.88c-.54-.85-1.1-1.78-1.7-2.58s-1.07-1.58-1.62-2.35l0,0S50,28,48.12,27.23A4.18,4.18,0,0,0,46.31,27c-1.71.13-4.07,1.28-5.84,2.1A174.41,174.41,0,0,0,23.86,38c-4,2.48-9.57,6.11-14.53,9.92A87.24,87.24,0,0,0,37.63,80H50.31A87.43,87.43,0,0,0,69.38,62.25Z"/><path class="cls-1" d="M80,10.43a74.75,74.75,0,0,0-11.76,4.82c-7.62,4.29-8.06,4.34-3.89,13.87.94,2.22,1.85,4.46,2.66,6.73s1.69,4.63,2.47,7C71,47.3,72.4,52,73.48,56.65A87,87,0,0,0,80,45.09Z"/><path class="cls-1" d="M14.86,35.18c3.54-3.35,7.37-6.87,11.22-9.86,3.45-2.67,6.85-5.38,10.4-7.92.81-.57,1.27-.81,2.22-1.57a2.53,2.53,0,0,0,.92-1.29,3.73,3.73,0,0,0-.28-1.85c-.74-1.9-3.2-5-4.36-7.06a36.89,36.89,0,0,0-2.75-3.76c-.48-.63-1-1.25-1.48-1.87H16.48A101.93,101.93,0,0,0,1.38,5.73L0,6.37,0,7.83a84.57,84.57,0,0,0,7.1,35.35C9.67,40.25,12.42,37.48,14.86,35.18Z"/><path class="cls-1" d="M52.83,7.83c1.59.27,3.94-.68,5.15-1,9.86-2.74,15.24-2.76,21.86-2.16a5.87,5.87,0,0,0-1-2.22Q75.21,1.08,71.52,0H43.34a33.74,33.74,0,0,1,2.87,2.54C47.7,4,50.74,7.48,52.83,7.83Z"/></svg>