<svg id="Layer_1" data-name="Layer 1" xmlns="http://www.w3.org/2000/svg" viewBox="0 0 32 32"><defs><style>.cls-1{fill:#ee6723;}.cls-1,.cls-2,.cls-3,.cls-4{fill-rule:evenodd;}.cls-2{fill:#7ab4e2;}.cls-3{fill:#1bb2a9;}.cls-4{fill:#f1a81f;}</style></defs><title>shell-proximax-colour</title><path class="cls-1" d="M21.09,3.93c4.54-1.26,6.47-.93,10-.57A36.25,36.25,0,0,0,16,0c-.78,0-1.56,0-2.33.08a14,14,0,0,1,3.14,2.3c.54.53,1.65,1.79,2.41,1.92a4.83,4.83,0,0,0,1.87-.37"/><path class="cls-2" d="M26.73,22.06c-.4-1.71-.92-3.41-1.46-5-.28-.85-.59-1.69-.9-2.53s-.62-1.64-1-2.45c-1.52-3.46-1.36-3.48,1.41-5,1.88-.94,4.84-2.26,7-2.16l.22,0a31,31,0,0,1-5.27,17.2"/><path class="cls-3" d="M3.4,18.87a62.27,62.27,0,0,1,5.28-3.61,63,63,0,0,1,6-3.21,7.24,7.24,0,0,1,2.12-.76,1.47,1.47,0,0,1,.66.07c.67.27,1.78,2,1.78,2l0,0c.2.28.38.58.58.86s.43.63.62.94c.3.46.58.93.87,1.41.46.76,1,1.56,1.38,2.34.69,1.31,1.66,3.16,2.49,5.14a32,32,0,0,1-8.78,7.64L16,32l-.46-.27A31.77,31.77,0,0,1,3.4,18.87"/><path class="cls-4" d="M10.33.46,10.8,1c.32.38.62.77.92,1.15a12.93,12.93,0,0,1,1,1.37,29.12,29.12,0,0,1,1.59,2.57,1.31,1.31,0,0,1,.1.67.9.9,0,0,1-.33.47c-.35.28-.52.36-.81.57C12,8.7,10.74,9.69,9.49,10.66c-1.4,1.09-2.8,2.37-4.08,3.59a39.55,39.55,0,0,0-2.82,2.91A30.85,30.85,0,0,1,0,4.3V3.77L.5,3.54A37,37,0,0,1,10.33.46"/></svg>