<svg id="Layer_1" data-name="Layer 1" xmlns="http://www.w3.org/2000/svg" viewBox="0 0 32 32"><defs><style>.cls-1{fill-rule:evenodd;}</style></defs><title>shield-proximax-black</title><path class="cls-1" d="M16.81,2.38A14,14,0,0,0,13.67.08C14.44,0,15.22,0,16,0A36.25,36.25,0,0,1,31.11,3.36c-3.55-.36-5.48-.69-10,.57a4.83,4.83,0,0,1-1.87.37C18.46,4.17,17.35,2.91,16.81,2.38Zm15,2.46c-2.12-.1-5.08,1.22-7,2.16-2.77,1.56-2.93,1.58-1.41,5,.34.81.67,1.63,1,2.45s.62,1.68.9,2.53c.54,1.63,1.06,3.33,1.46,5A31,31,0,0,0,32,4.86ZM21.37,16.61c-.29-.48-.57-.95-.87-1.41-.19-.31-.4-.65-.62-.94s-.38-.58-.58-.86l0,0s-1.11-1.75-1.78-2a1.47,1.47,0,0,0-.66-.07,7.24,7.24,0,0,0-2.12.76,63,63,0,0,0-6,3.21A62.27,62.27,0,0,0,3.4,18.87,31.77,31.77,0,0,0,15.54,31.73L16,32l.46-.27a32,32,0,0,0,8.78-7.64c-.83-2-1.8-3.83-2.49-5.14C22.34,18.17,21.83,17.37,21.37,16.61Zm-16-2.36c1.28-1.22,2.68-2.5,4.08-3.59,1.25-1,2.49-2,3.78-2.88.29-.21.46-.29.81-.57a.9.9,0,0,0,.33-.47,1.31,1.31,0,0,0-.1-.67A29.12,29.12,0,0,0,12.72,3.5a12.93,12.93,0,0,0-1-1.37c-.3-.38-.6-.77-.92-1.15L10.33.46A37,37,0,0,0,.5,3.54L0,3.77V4.3A30.85,30.85,0,0,0,2.59,17.16,39.55,39.55,0,0,1,5.41,14.25Z"/></svg>