<svg id="Layer_1" data-name="Layer 1" xmlns="http://www.w3.org/2000/svg" viewBox="0 0 30 30"><title>telegram-black</title><path d="M22.22,7.93,5.05,14.21a.46.46,0,0,0,0,.88l4.18,1.48,1.62,4.94a.5.5,0,0,0,.78.22L14,19.93a.71.71,0,0,1,.84,0L19,22.8a.5.5,0,0,0,.77-.28L22.88,8.46A.48.48,0,0,0,22.22,7.93ZM19,11.22l-6.75,6a1.27,1.27,0,0,0-.43.79l-.23,1.62a.22.22,0,0,1-.42,0l-.88-2.95a.77.77,0,0,1,.36-.88L18.78,11A.14.14,0,0,1,19,11.22ZM15,0A15,15,0,1,0,30,15,15,15,0,0,0,15,0Zm0,28.64A13.64,13.64,0,1,1,28.64,15,13.64,13.64,0,0,1,15,28.64Z"/></svg>