<svg id="Layer_1" data-name="Layer 1" xmlns="http://www.w3.org/2000/svg" viewBox="0 0 30 30"><defs><style>.cls-1{fill:#fff;}</style></defs><title>twitter-white</title><path class="cls-1" d="M21.73,10.85a6.67,6.67,0,0,0,1.95-.51A6.78,6.78,0,0,1,22,12.07c0,.14,0,.29,0,.43A9.65,9.65,0,0,1,7.11,20.56a7,7,0,0,0,.81.05,6.82,6.82,0,0,0,4.22-1.45A3.44,3.44,0,0,1,9,16.77a3.39,3.39,0,0,0,.64.06,3.82,3.82,0,0,0,.9-.11,3.45,3.45,0,0,1-2.73-3.38v-.05a3.25,3.25,0,0,0,1.54.45A3.47,3.47,0,0,1,7.8,10.87a3.43,3.43,0,0,1,.46-1.72,9.71,9.71,0,0,0,7,3.66,3.36,3.36,0,0,1,3.31-4.13,3.48,3.48,0,0,1,2.49,1.11A6.75,6.75,0,0,0,23.23,9,3.36,3.36,0,0,1,21.73,10.85ZM30,15A15,15,0,1,1,15,0,15,15,0,0,1,30,15Zm-1.36,0A13.64,13.64,0,1,0,15,28.64,13.64,13.64,0,0,0,28.64,15Z"/></svg>