<svg id="Layer_1" data-name="Layer 1" xmlns="http://www.w3.org/2000/svg" viewBox="0 0 70 70"><defs><style>.cls-1{fill:#023c42;}</style></defs><title>user-account-green</title><path class="cls-1" d="M28.54,4.58h0Z"/><path class="cls-1" d="M35.6,5C16.27,4.68.34,19.62,0,38.36A33.39,33.39,0,0,0,12.48,64.88a9.2,9.2,0,0,1,1.66-1.14l10.44-5.53a4.11,4.11,0,0,0,2.23-3.63V50.43a22.22,22.22,0,0,1-4.24-8.49A3.39,3.39,0,0,1,21,39.08V34.54A3.37,3.37,0,0,1,22.12,32V25.46S20.73,15.24,35,15.24,47.88,25.46,47.88,25.46V32a3.37,3.37,0,0,1,1.17,2.52v4.54a3.42,3.42,0,0,1-2.49,3.24,24.67,24.67,0,0,1-3.48,6.79A13.16,13.16,0,0,1,42,50.43v4.26a4.14,4.14,0,0,0,2.36,3.7l11.18,5.42A9.06,9.06,0,0,1,57.4,65,33.47,33.47,0,0,0,70,39.52C70.33,20.78,54.93,5.33,35.6,5Z"/></svg>