<?xml version="1.0" encoding="utf-8"?>
<!-- Generator: Adobe Illustrator 24.1.0, SVG Export Plug-In . SVG Version: 6.00 Build 0)  -->
<svg version="1.1" id="Capa_1" xmlns="http://www.w3.org/2000/svg" xmlns:xlink="http://www.w3.org/1999/xlink" x="0px" y="0px"
	 viewBox="0 0 53 53" style="enable-background:new 0 0 53 53;" xml:space="preserve">
<style type="text/css">
	.st0{fill:#7D1316;}
</style>
<g>
	<path class="st0" d="M27,1.3C12.3,1.1,0.3,12.5,0,26.9c-0.1,8.2,3.6,15.5,9.4,20.4c0.4-0.3,0.8-0.6,1.3-0.9l7.9-4.2
		c1-0.6,1.7-1.6,1.7-2.8v-3.2c0,0-2.3-2.7-3.2-6.5c-0.7-0.5-1.2-1.3-1.2-2.2V24c0-0.8,0.3-1.5,0.9-1.9v-5c0,0-1.1-7.8,9.8-7.8
		s9.8,7.8,9.8,7.8v5c0.5,0.5,0.9,1.2,0.9,1.9v3.5c0,1.2-0.8,2.2-1.9,2.5c-0.6,1.9-1.5,3.6-2.6,5.2c-0.3,0.4-0.6,0.7-0.8,1v3.3
		c0,1.2,0.7,2.3,1.8,2.8l8.5,4.2c0.5,0.2,1,0.6,1.4,0.9c5.7-4.7,9.4-11.7,9.5-19.6C53.2,13.4,41.6,1.6,27,1.3z"/>
</g>
</svg>
