<svg id="Layer_1" data-name="Layer 1" xmlns="http://www.w3.org/2000/svg" viewBox="0 0 32 32"><defs><style>.cls-1{fill:#023c42;}.cls-2{fill:#fff;}</style></defs><title>user-account-white</title><path class="cls-1" d="M28.54,4.58h0Z"/><path class="cls-2" d="M16.27,2A15.89,15.89,0,0,0,0,17.47a15.6,15.6,0,0,0,5.7,12.3,4.93,4.93,0,0,1,.76-.53l4.78-2.56a1.92,1.92,0,0,0,1-1.69V23.07a10.36,10.36,0,0,1-1.93-3.94,1.58,1.58,0,0,1-.74-1.32V15.7a1.59,1.59,0,0,1,.53-1.17v-3S9.48,6.75,16,6.75s5.89,4.74,5.89,4.74v3a1.59,1.59,0,0,1,.53,1.17v2.11a1.58,1.58,0,0,1-1.14,1.5,11.25,11.25,0,0,1-1.59,3.15,7.71,7.71,0,0,1-.48.61v2a1.93,1.93,0,0,0,1.08,1.72l5.11,2.51a4,4,0,0,1,.84.56A15.63,15.63,0,0,0,32,18,15.87,15.87,0,0,0,16.27,2Z"/></svg>