<svg id="Layer_1" data-name="Layer 1" xmlns="http://www.w3.org/2000/svg" viewBox="0 0 26 21"><defs><style>.cls-1{fill:#ccc;}</style></defs><title>wallet-address-light-gray</title><path class="cls-1" d="M21.53,10.93V10A.57.57,0,0,0,21,9.45H13.8a2,2,0,0,1-1.09,1.42.41.41,0,0,0-.05.09v.54H21A.56.56,0,0,0,21.53,10.93Z"/><path class="cls-1" d="M10.9,12.42h-.62a.58.58,0,0,1-.58-.59.46.46,0,0,1,.13-.32,4.34,4.34,0,0,0,.89-1.36.25.25,0,0,0,.14.06c.35,0,.76-.79.76-1.32s0-1-.39-1l-.13,0c0-1.45-.39-3.26-2.56-3.26S6,6.49,6,7.94l-.09,0c-.35,0-.4.43-.4,1s.41,1.32.76,1.32a.19.19,0,0,0,.12,0,4.33,4.33,0,0,0,.88,1.34.46.46,0,0,1,.13.32.58.58,0,0,1-.58.59H6.16a2.43,2.43,0,0,0-2.4,2.45v.68a.77.77,0,0,0,.76.77h8a.77.77,0,0,0,.76-.77v-.68A2.43,2.43,0,0,0,10.9,12.42Z"/><path class="cls-1" d="M21,13.19H15.09a3.2,3.2,0,0,1,.48,1.68v.37H21a.56.56,0,0,0,.56-.57v-.91A.57.57,0,0,0,21,13.19Z"/><path class="cls-1" d="M21,5.71h-8a5,5,0,0,1,.4,1.64,1.07,1.07,0,0,1,.34.41H21a.56.56,0,0,0,.56-.57V6.28A.57.57,0,0,0,21,5.71Z"/><path class="cls-1" d="M22.62,0H3.38A3.45,3.45,0,0,0,0,3.52v14A3.45,3.45,0,0,0,3.38,21H22.62A3.45,3.45,0,0,0,26,17.48v-14A3.45,3.45,0,0,0,22.62,0ZM24.4,17.48a1.82,1.82,0,0,1-1.78,1.86H3.38A1.82,1.82,0,0,1,1.6,17.48v-14A1.82,1.82,0,0,1,3.38,1.66H22.62A1.82,1.82,0,0,1,24.4,3.52Z"/></svg>