<?xml version="1.0" encoding="utf-8"?>
<!-- Generator: Adobe Illustrator 24.1.0, SVG Export Plug-In . SVG Version: 6.00 Build 0)  -->
<svg version="1.1" id="Layer_1" xmlns="http://www.w3.org/2000/svg" xmlns:xlink="http://www.w3.org/1999/xlink" x="0px" y="0px"
	 viewBox="0 0 512 512" style="enable-background:new 0 0 512 512;" xml:space="preserve">
<style type="text/css">
	.st0{fill:#7D1316;}
</style>
<g>
	<path class="st0" d="M256,0C114,0,0,114,0,256s114,256,256,256s256-114,256-256S398,0,256,0z M395.6,267.6c0,7-4.7,11.6-11.6,11.6
		h-98.9c-3.5,0-5.8,2.3-5.8,5.8V384c0,7-4.7,11.6-11.6,11.6h-23.3c-7,0-11.6-4.7-11.6-11.6v-98.9c0-3.5-2.3-5.8-5.8-5.8H128
		c-7,0-11.6-4.7-11.6-11.6v-23.3c0-7,4.7-11.6,11.6-11.6h98.9c3.5,0,5.8-2.3,5.8-5.8V128c0-7,4.7-11.6,11.6-11.6h23.3
		c7,0,11.6,4.7,11.6,11.6v98.9c0,3.5,2.3,5.8,5.8,5.8H384c7,0,11.6,4.7,11.6,11.6V267.6z"/>
</g>
</svg>
