<svg id="Layer_1" data-name="Layer 1" xmlns="http://www.w3.org/2000/svg" viewBox="0 0 182 50"><defs><style>.cls-1{fill:#fff;}.cls-2,.cls-6{fill:#e06e38;}.cls-2,.cls-3,.cls-4,.cls-5{fill-rule:evenodd;}.cls-3,.cls-9{fill:#84b5de;}.cls-4,.cls-8{fill:#54b1aa;}.cls-5,.cls-7{fill:#e8aa43;}.cls-10{fill:#bf5735;}.cls-11{fill:#bd873e;}.cls-12{fill:#449c90;}.cls-13{fill:#598dba;}</style></defs><title>Artboard 1</title><path class="cls-1" d="M85.93,38.47a.91.91,0,0,1-.18.21.45.45,0,0,1-.25.07.62.62,0,0,1-.37-.16,3.84,3.84,0,0,0-.54-.35,3.93,3.93,0,0,0-.78-.36,3.45,3.45,0,0,0-1.1-.16,3.36,3.36,0,0,0-1.09.17,2.62,2.62,0,0,0-.78.44,1.88,1.88,0,0,0-.48.67,2.1,2.1,0,0,0-.16.82,1.49,1.49,0,0,0,.28.94,2.11,2.11,0,0,0,.73.63,5.32,5.32,0,0,0,1,.46l1.19.4a12.08,12.08,0,0,1,1.18.47,4.4,4.4,0,0,1,1,.65,3,3,0,0,1,.73,1,3.1,3.1,0,0,1,.28,1.41,4.74,4.74,0,0,1-.3,1.67,4,4,0,0,1-.88,1.35,4.23,4.23,0,0,1-1.42.9,5.25,5.25,0,0,1-1.92.33,5.77,5.77,0,0,1-2.39-.48,5.6,5.6,0,0,1-1.84-1.28l.53-.87a.73.73,0,0,1,.18-.17.4.4,0,0,1,.24-.07.73.73,0,0,1,.46.21,5.73,5.73,0,0,0,.63.47,4.65,4.65,0,0,0,.92.46,3.78,3.78,0,0,0,1.33.21,3.73,3.73,0,0,0,1.15-.17,2.47,2.47,0,0,0,.87-.51,2.11,2.11,0,0,0,.54-.78A2.56,2.56,0,0,0,85,46a1.78,1.78,0,0,0-.28-1,2.39,2.39,0,0,0-.73-.65,6,6,0,0,0-1-.45l-1.19-.37c-.4-.13-.8-.28-1.19-.45a3.94,3.94,0,0,1-1-.66,3.15,3.15,0,0,1-.73-1,4,4,0,0,1,0-2.89,3.74,3.74,0,0,1,2.11-2,4.76,4.76,0,0,1,1.79-.31,5.8,5.8,0,0,1,2.06.35,4.82,4.82,0,0,1,1.63,1Z"/><path class="cls-1" d="M91,37.32a1,1,0,0,1-.1.45,1.22,1.22,0,0,1-.26.38,1.15,1.15,0,0,1-.84.35,1.21,1.21,0,0,1-1.1-.73,1.17,1.17,0,0,1-.09-.45,1.27,1.27,0,0,1,.09-.47,1.25,1.25,0,0,1,.64-.64,1.11,1.11,0,0,1,.92,0,1.25,1.25,0,0,1,.64.64A1.1,1.1,0,0,1,91,37.32Zm-.37,3v9.54H88.92V40.31Z"/><path class="cls-1" d="M93.55,49.85V40.31h1a.58.58,0,0,1,.38.1.67.67,0,0,1,.14.36l.11,1.49a4.5,4.5,0,0,1,1.21-1.56A2.75,2.75,0,0,1,98,40.14a2.9,2.9,0,0,1,.72.09,2.38,2.38,0,0,1,.59.25l-.21,1.25a.31.31,0,0,1-.3.24,1.37,1.37,0,0,1-.4-.09,2.44,2.44,0,0,0-.76-.09,2.13,2.13,0,0,0-1.47.51,3.74,3.74,0,0,0-1,1.48v6.07Z"/><path class="cls-1" d="M103.38,37.32a1,1,0,0,1-.1.45,1.22,1.22,0,0,1-.26.38,1.15,1.15,0,0,1-.84.35,1.21,1.21,0,0,1-1.1-.73,1.17,1.17,0,0,1-.09-.45,1.27,1.27,0,0,1,.09-.47,1.25,1.25,0,0,1,.64-.64,1.11,1.11,0,0,1,.92,0,1.25,1.25,0,0,1,.64.64A1.1,1.1,0,0,1,103.38,37.32Zm-.37,3v9.54h-1.68V40.31Z"/><path class="cls-1" d="M107.41,40.31v6.08a2.53,2.53,0,0,0,.5,1.68,1.84,1.84,0,0,0,1.51.59,2.78,2.78,0,0,0,1.38-.35,4.45,4.45,0,0,0,1.2-1v-7h1.67v9.54h-1a.43.43,0,0,1-.45-.35l-.13-1a5.31,5.31,0,0,1-1.39,1.11,3.64,3.64,0,0,1-1.77.42,3.45,3.45,0,0,1-1.38-.26,2.59,2.59,0,0,1-1-.73,3.07,3.07,0,0,1-.61-1.14,4.94,4.94,0,0,1-.2-1.48V40.31Z"/><path class="cls-1" d="M121.89,41.88a.35.35,0,0,1-.35.21.63.63,0,0,1-.32-.1c-.12-.07-.26-.15-.43-.23a3.61,3.61,0,0,0-.62-.24,3.05,3.05,0,0,0-.85-.11,2.79,2.79,0,0,0-.76.11,1.61,1.61,0,0,0-.58.3,1.43,1.43,0,0,0-.37.44,1.25,1.25,0,0,0-.12.54.91.91,0,0,0,.21.61,1.92,1.92,0,0,0,.56.42,4.51,4.51,0,0,0,.79.32l.91.29c.31.1.61.22.91.34a3.51,3.51,0,0,1,.79.47,2.25,2.25,0,0,1,.56.7,2.14,2.14,0,0,1,.21,1,3.2,3.2,0,0,1-.24,1.22,2.76,2.76,0,0,1-.69,1,3.52,3.52,0,0,1-1.13.64,4.53,4.53,0,0,1-1.55.24,4.67,4.67,0,0,1-3.18-1.16l.4-.64a.81.81,0,0,1,.18-.19.51.51,0,0,1,.27-.06.66.66,0,0,1,.36.13c.12.09.27.18.45.29a2.93,2.93,0,0,0,.65.29,3.06,3.06,0,0,0,1,.13,2.73,2.73,0,0,0,.85-.12,1.81,1.81,0,0,0,.62-.35,1.45,1.45,0,0,0,.36-.49,1.58,1.58,0,0,0,.12-.61,1,1,0,0,0-.21-.65,2,2,0,0,0-.56-.44,4.31,4.31,0,0,0-.8-.32l-.91-.29c-.31-.1-.62-.22-.92-.35a3,3,0,0,1-.79-.48,2,2,0,0,1-.56-.72,2.43,2.43,0,0,1,0-2,2.62,2.62,0,0,1,.66-.89,3.27,3.27,0,0,1,1.06-.6,4.14,4.14,0,0,1,1.44-.23,4.43,4.43,0,0,1,1.69.3,4.18,4.18,0,0,1,1.3.81Z"/><path class="cls-1" d="M127.36,36.36h1.52a.65.65,0,0,1,.4.12.58.58,0,0,1,.22.31l2.79,9.38c.05.17.09.35.13.54s.08.4.12.62a3.1,3.1,0,0,1,.13-.62,5.14,5.14,0,0,1,.15-.54L136,36.79a.65.65,0,0,1,.22-.3.58.58,0,0,1,.4-.13h.52a.59.59,0,0,1,.4.12.64.64,0,0,1,.23.31l3.15,9.38a10.88,10.88,0,0,1,.3,1.12,3.45,3.45,0,0,1,.1-.59,4.11,4.11,0,0,1,.13-.53l2.79-9.38a.65.65,0,0,1,.22-.3.58.58,0,0,1,.4-.13h1.42l-4.21,13.49h-1.64L137,39.56a5.27,5.27,0,0,1-.19-.68l-.09.36a3,3,0,0,1-.08.32L133.2,49.85h-1.64Z"/><path class="cls-1" d="M154,49.85h-.74a.92.92,0,0,1-.4-.08.4.4,0,0,1-.2-.32l-.19-.88c-.25.22-.49.43-.73.61a3.55,3.55,0,0,1-.75.45,5,5,0,0,1-.85.28,5.55,5.55,0,0,1-1,.09,3.08,3.08,0,0,1-1-.16,2.46,2.46,0,0,1-.84-.46,2.22,2.22,0,0,1-.57-.79,2.74,2.74,0,0,1-.21-1.13,2.09,2.09,0,0,1,.31-1.09,2.71,2.71,0,0,1,1-.93,6.58,6.58,0,0,1,1.81-.67,12.6,12.6,0,0,1,2.74-.26v-.75a2.67,2.67,0,0,0-.47-1.69,1.72,1.72,0,0,0-1.41-.57,3.07,3.07,0,0,0-1,.15,4.08,4.08,0,0,0-.73.35l-.52.35a.87.87,0,0,1-.44.16.53.53,0,0,1-.3-.09.74.74,0,0,1-.2-.23l-.3-.53a5.07,5.07,0,0,1,3.73-1.52,3.45,3.45,0,0,1,1.42.27,2.92,2.92,0,0,1,1.68,1.87,4.56,4.56,0,0,1,.22,1.47Zm-4.35-1a3.72,3.72,0,0,0,.81-.09,3.23,3.23,0,0,0,1.31-.65,6,6,0,0,0,.58-.54v-2a11.16,11.16,0,0,0-2,.15,5.06,5.06,0,0,0-1.31.39,1.68,1.68,0,0,0-.74.55,1.23,1.23,0,0,0-.23.72,1.65,1.65,0,0,0,.12.66,1.22,1.22,0,0,0,.33.45,1.27,1.27,0,0,0,.49.25,2.09,2.09,0,0,0,.61.08Z"/><path class="cls-1" d="M158.38,36V49.85H156.7V36Z"/><path class="cls-1" d="M163.2,36V49.85h-1.68V36Z"/><path class="cls-1" d="M169.93,40.16a4.26,4.26,0,0,1,1.58.29,3.51,3.51,0,0,1,1.25.83,3.69,3.69,0,0,1,.83,1.33,5.38,5.38,0,0,1,.29,1.82,1,1,0,0,1-.08.52.36.36,0,0,1-.32.14h-6.35a5.26,5.26,0,0,0,.25,1.57,3.11,3.11,0,0,0,.62,1.11,2.61,2.61,0,0,0,.94.67,3.18,3.18,0,0,0,1.22.22,3.63,3.63,0,0,0,1.09-.14,5.44,5.44,0,0,0,.79-.32c.22-.11.4-.22.55-.31a.67.67,0,0,1,.38-.15.34.34,0,0,1,.32.16l.47.61a3.1,3.1,0,0,1-.74.66,5.32,5.32,0,0,1-.93.45,5.68,5.68,0,0,1-1,.27,5.55,5.55,0,0,1-1,.09,4.93,4.93,0,0,1-1.82-.33,4.15,4.15,0,0,1-1.44-1,4.56,4.56,0,0,1-1-1.6,6.71,6.71,0,0,1-.33-2.18,5.64,5.64,0,0,1,.3-1.87,4.82,4.82,0,0,1,.88-1.5,4.09,4.09,0,0,1,1.4-1A4.61,4.61,0,0,1,169.93,40.16Zm0,1.23a2.55,2.55,0,0,0-1.91.71,3.21,3.21,0,0,0-.87,1.94h5.19a3.56,3.56,0,0,0-.16-1.07,2.49,2.49,0,0,0-.47-.84,2.16,2.16,0,0,0-.76-.54,2.38,2.38,0,0,0-.95-.2Z"/><path class="cls-1" d="M178.91,50a2.34,2.34,0,0,1-1.74-.63,2.53,2.53,0,0,1-.6-1.82V41.71h-1.15a.41.41,0,0,1-.26-.09.34.34,0,0,1-.1-.27v-.67l1.56-.2.39-2.95a.35.35,0,0,1,.12-.23.44.44,0,0,1,.27-.09h.84V40.5H181v1.21h-2.73v5.73a1.22,1.22,0,0,0,.29.89,1,1,0,0,0,.76.3,1.16,1.16,0,0,0,.45-.08,2.07,2.07,0,0,0,.34-.15l.24-.16a.36.36,0,0,1,.17-.07.31.31,0,0,1,.24.16l.49.8a3.06,3.06,0,0,1-1.05.64A3.77,3.77,0,0,1,178.91,50Z"/><path class="cls-2" d="M26.41,5.05C32.1,3.43,34.52,3.85,39,4.31A44.33,44.33,0,0,0,20,0a28.2,28.2,0,0,0-2.92.1A17.43,17.43,0,0,1,21,3.05c.68.69,2.07,2.31,3,2.47a6.07,6.07,0,0,0,2.34-.47"/><path class="cls-3" d="M33.47,28.32C33,26.13,32.33,24,31.65,21.86c-.35-1.09-.74-2.17-1.12-3.25s-.79-2.1-1.21-3.14C27.42,11,27.61,11,31.09,9c2.35-1.2,6.06-2.9,8.71-2.77h.28a40.37,40.37,0,0,1-6.61,22.08"/><path class="cls-4" d="M4.25,24.23c2.26-1.78,4.78-3.47,6.62-4.64a83.9,83.9,0,0,1,7.57-4.12,9.11,9.11,0,0,1,2.66-1,1.89,1.89,0,0,1,.82.08c.84.36,2.23,2.61,2.23,2.61h0c.25.36.47.75.73,1.1s.53.81.78,1.21c.37.6.73,1.2,1.09,1.81.57,1,1.2,2,1.73,3,.86,1.68,2.07,4.06,3.11,6.6a40.28,40.28,0,0,1-11,9.81L20,41.1l-.58-.35A40.48,40.48,0,0,1,4.25,24.23"/><path class="cls-5" d="M12.94.59c.21.23.41.46.58.67.4.48.79,1,1.16,1.48A16.6,16.6,0,0,1,15.94,4.5a37.93,37.93,0,0,1,2,3.29,1.83,1.83,0,0,1,.13.87,1.16,1.16,0,0,1-.42.6c-.43.35-.64.47-1,.73-1.62,1.19-3.17,2.46-4.74,3.7a65.07,65.07,0,0,0-5.11,4.6C5.66,19.37,4.41,20.66,3.24,22A40.2,40.2,0,0,1,0,5.52V4.84l.61-.3A46,46,0,0,1,12.94.59"/><path class="cls-1" d="M48.23,10.25h8.53c4,0,6.69,2.92,6.69,7.06s-2.7,7.12-6.69,7.12h-3.5v6.34h-5Zm7.5,9.87a2.51,2.51,0,0,0,2.63-2.37,3.31,3.31,0,0,0,0-.44c0-1.64-.86-2.76-2.53-2.76H53.26v5.57Z"/><path class="cls-1" d="M65.71,15.78h4.7v3.37a5,5,0,0,1,4.64-3.62,3.66,3.66,0,0,1,.57.05v4.81a4.77,4.77,0,0,0-1-.08c-2.72,0-4,1.73-4,4.39v5.66h-4.9Z"/><path class="cls-1" d="M85.55,15.44c4.61,0,8.29,3.09,8.29,7.67s-3.68,7.59-8.26,7.59-8.27-3-8.27-7.59,3.68-7.67,8.24-7.67m0,11.18a3.3,3.3,0,0,0,3.32-3.28c0-.08,0-.15,0-.23a3.33,3.33,0,1,0-6.63,0,3.29,3.29,0,0,0,3.08,3.5h.24"/><path class="cls-1" d="M153.76,21.27h.43V21c0-1.22-1-1.62-2.07-1.62a7.68,7.68,0,0,0-4,1.39l-1.7-3.45a11.14,11.14,0,0,1,6.17-1.9c4,0,6.51,2.24,6.51,6v9h-4.47V28.58a5.37,5.37,0,0,1-4.33,2.12,4.46,4.46,0,0,1-4.75-4.15,2.81,2.81,0,0,1,0-.29c0-3.91,4.65-5,8.24-5m-2,5.78a2.67,2.67,0,0,0,2.49-2.58v-.39h-.45c-1.5,0-3.42.39-3.42,1.72a1.26,1.26,0,0,0,1.24,1.26h.14"/><polygon class="cls-6" points="181.31 10.25 180 10.25 174.15 19.18 174.81 20.2 180.84 10.98 181.31 10.25"/><polygon class="cls-7" points="178.5 10.25 173.4 18.03 173.98 18.91 179.65 10.25 178.5 10.25"/><polygon class="cls-8" points="177.03 10.25 172.67 16.9 173.24 17.78 178.17 10.25 177.03 10.25"/><polygon class="cls-9" points="175.33 10.25 173.15 13.58 171.83 15.6 172.49 16.62 176.66 10.25 175.33 10.25"/><polygon class="cls-10" points="174.15 19.18 174.81 20.2 176.22 18.03 175.57 17.02 174.15 19.18"/><polygon class="cls-11" points="173.98 18.91 175.39 16.75 174.82 15.86 173.4 18.03 173.98 18.91"/><polygon class="cls-12" points="173.24 17.78 174.66 15.61 174.09 14.73 172.67 16.9 173.24 17.78"/><polygon class="cls-13" points="171.83 15.6 172.49 16.62 173.91 14.45 173.25 13.43 172.48 14.6 171.83 15.6"/><polygon class="cls-1" points="168.39 10.27 162.2 10.27 168.71 20.36 161.92 30.77 167.97 30.77 171.72 25 175.45 30.77 181.64 30.77 174.82 20.22 171.83 15.59 168.39 10.27"/><rect class="cls-1" x="112.4" y="15.78" width="4.9" height="14.58"/><rect class="cls-1" x="112.46" y="10.12" width="4.79" height="3.82"/><path class="cls-1" d="M120.7,15.93h4.91v1.92a5.1,5.1,0,0,1,4.16-2.23,4.3,4.3,0,0,1,4,2.28,5.87,5.87,0,0,1,4.68-2.28c3,0,4.78,1.86,4.78,5.12v9.78h-4.91v-8.2c0-1.53-.75-2.33-1.91-2.33s-2,.8-2,2.33v8.2H129.5v-8.2c0-1.53-.75-2.33-1.91-2.33s-2,.8-2,2.33v8.2H120.7Z"/><polygon class="cls-1" points="109.69 30.35 104.7 22.95 109.59 15.79 104.17 15.79 102.01 18.96 99.87 15.79 94.35 15.79 99.25 23.03 94.27 30.35 99.65 30.35 101.94 27 104.2 30.35 109.69 30.35"/></svg>