<svg id="Layer_1" data-name="Layer 1" xmlns="http://www.w3.org/2000/svg" viewBox="0 0 80 80"><defs><style>.cls-1{fill:#fff;}.cls-2{fill:#1e4065;}.cls-3{fill:#0c1f44;}.cls-4{fill:#e18f36;}.cls-5{fill:#eaaa3b;}</style></defs><title>icon-private-key-export-full-color-80h</title><circle cx="40.4" cy="40.4" r="39.6"/><circle class="cls-1" cx="39.6" cy="39.6" r="39.6"/><path d="M76.14,38.94A37.18,37.18,0,1,1,39,1.77,37.18,37.18,0,0,1,76.14,38.94Z"/><path class="cls-2" d="M76.78,39.59A37.17,37.17,0,1,1,39.61,2.41,37.17,37.17,0,0,1,76.78,39.59Z"/><path class="cls-3" d="M69.87,22.51A34.75,34.75,0,1,0,20.12,68.35C23.94,43.8,44.77,24.28,69.87,22.51Z"/><path d="M63.46,44.07l-6-3.45a1.08,1.08,0,0,0-1.61.93v.39A1.07,1.07,0,0,1,54.81,43H48.07a.88.88,0,0,0-.32.07,1.7,1.7,0,0,0-1.32.49L36.23,53.85,36,53.56l0,0L25,42.61l-.86-.86,19.3-19.3a3.48,3.48,0,0,1,4.92,0l7.21,7.2a3.43,3.43,0,0,1,0,4.84A1.71,1.71,0,1,0,58,36.91a6.85,6.85,0,0,0,0-9.69L50.78,20A6.92,6.92,0,0,0,41,20L20.5,40.54a1.71,1.71,0,0,0,0,2.42l2.4,2.41-6.34,6.26a1.73,1.73,0,0,0,0,2.45L24,61.46a1.73,1.73,0,0,0,2.42,0l6.26-6.26L35,57.49a1.69,1.69,0,0,0,1.22.51h0a1.73,1.73,0,0,0,1.21-.51L47.91,47a.76.76,0,0,0,.16,0h6.74a1.07,1.07,0,0,1,1.07,1.07v.39a1.08,1.08,0,0,0,1.61.93l6-3.45A1.07,1.07,0,0,0,63.46,44.07ZM25.23,57.82l-5-5,5.12-5.06h0l4.95,4.95Z"/><path class="cls-4" d="M38,40.7a3,3,0,0,0-3,3,2.62,2.62,0,0,0,.06.57L31.37,48l0,0,0,0L36,52.56,33.8,50.41l3.74-3.74a3.89,3.89,0,0,0,.49,0,3,3,0,0,0,0-6Z"/><path class="cls-5" d="M49.1,28.17a3,3,0,0,0-3,3,2.59,2.59,0,0,0,0,.48l-2.82,2.87h-7.7a1.72,1.72,0,0,0-1.21.5l-7.9,8.14,2.28,2.28h0l0,0h0l.06-.06h0L36.33,38H44a1.69,1.69,0,0,0,1.22-.51l3.26-3.32a3.68,3.68,0,0,0,.58.05,3,3,0,1,0,0-6Z"/><path class="cls-1" d="M63.46,43.07l-6-3.45a1.08,1.08,0,0,0-1.61.93v.39A1.07,1.07,0,0,1,54.81,42H48.07a.88.88,0,0,0-.32.07,1.7,1.7,0,0,0-1.32.49L36.23,52.85,36,52.56l0,0L25,41.61l-.86-.86,19.3-19.3a3.48,3.48,0,0,1,4.92,0l7.21,7.2a3.43,3.43,0,0,1,0,4.84A1.71,1.71,0,1,0,58,35.91a6.85,6.85,0,0,0,0-9.69L50.78,19A6.92,6.92,0,0,0,41,19L20.5,39.54a1.71,1.71,0,0,0,0,2.42l2.4,2.41-6.34,6.26a1.73,1.73,0,0,0,0,2.45L24,60.46a1.73,1.73,0,0,0,2.42,0l6.26-6.26L35,56.49a1.69,1.69,0,0,0,1.22.51h0a1.73,1.73,0,0,0,1.21-.51L47.91,46a.76.76,0,0,0,.16,0h6.74a1.07,1.07,0,0,1,1.07,1.07v.39a1.08,1.08,0,0,0,1.61.93l6-3.45A1.07,1.07,0,0,0,63.46,43.07ZM25.23,56.82l-5-5,5.12-5.06h0l4.95,4.95Z"/></svg>