<svg id="Layer_1" data-name="Layer 1" xmlns="http://www.w3.org/2000/svg" viewBox="0 0 42 42"><defs><style>.cls-1{fill:#225c67;}</style></defs><title>icon-sign-out-green</title><path class="cls-1" d="M21,0A21,21,0,1,0,42,21,21,21,0,0,0,21,0Zm0,40.69A19.69,19.69,0,1,1,40.69,21,19.71,19.71,0,0,1,21,40.69Zm-.87-10.42c0,.16,0,.3,0,.41s0,.23-.05.37a.52.52,0,0,1-.17.3.49.49,0,0,1-.34.1h-5.3a4.76,4.76,0,0,1-3.38-1.32A4.23,4.23,0,0,1,9.5,27V16a4.24,4.24,0,0,1,1.4-3.18,4.76,4.76,0,0,1,3.38-1.32h5.3a.5.5,0,0,1,.37.15.46.46,0,0,1,.16.35c0,.05,0,.15,0,.32s0,.3,0,.41,0,.23-.05.37a.52.52,0,0,1-.17.3.49.49,0,0,1-.34.1h-5.3a2.65,2.65,0,0,0-1.88.74A2.34,2.34,0,0,0,11.62,16V27a2.35,2.35,0,0,0,.78,1.77,2.64,2.64,0,0,0,1.88.73h5.17l.19,0c.13,0,.19,0,.19.05s0,.05.13.08.13.09.12.14a.41.41,0,0,0,0,.21C20.11,30,20.12,30.1,20.13,30.27ZM35.5,21.45a.91.91,0,0,1-.32.71l-9,8.5a1,1,0,0,1-.74.3,1.05,1.05,0,0,1-.75-.3.93.93,0,0,1-.31-.71v-4.5H16.93a1,1,0,0,1-.75-.29.93.93,0,0,1-.31-.71v-6a.93.93,0,0,1,.31-.7,1.05,1.05,0,0,1,.75-.3h7.43V13a.93.93,0,0,1,.31-.7,1.05,1.05,0,0,1,.75-.3,1,1,0,0,1,.74.3l9,8.5A.9.9,0,0,1,35.5,21.45Z"/></svg>