<svg id="Layer_1" data-name="Layer 1" xmlns="http://www.w3.org/2000/svg" viewBox="0 0 32 32"><defs><style>.cls-1{fill:#fff;}</style></defs><title>icon-transfer-assets-white</title><path class="cls-1" d="M29.74,11.83l-7-7.13a1,1,0,0,0-1.41,0,1,1,0,0,0-.3.72V8.47H14a1,1,0,0,0,0,2h8a1,1,0,0,0,1-1V7.88l4.59,4.67L23,17.22V15.6a1,1,0,0,0-1-1H11V11.53a1,1,0,0,0-1-1,1,1,0,0,0-.7.3l-7,7.13a1,1,0,0,0,0,1.43l7,7.13a1,1,0,0,0,.7.3,1,1,0,0,0,.39-.08,1,1,0,0,0,.61-.94V22.73h7a1,1,0,0,0,0-2H10a1,1,0,0,0-1,1v1.61L4.45,18.66,9,14V15.6a1,1,0,0,0,1,1H21v3.05a1,1,0,0,0,1.71.72l7-7.12A1,1,0,0,0,29.74,11.83Z"/></svg>