<svg id="Layer_1" data-name="Layer 1" xmlns="http://www.w3.org/2000/svg" viewBox="0 0 42 42"><defs><style>.cls-1{fill:#999;}</style></defs><title>icon-swap-gray</title><path class="cls-1" d="M21,0A21,21,0,1,0,42,21,21,21,0,0,0,21,0Zm0,40.69A19.69,19.69,0,1,1,40.69,21,19.71,19.71,0,0,1,21,40.69ZM24.41,24V22.19H23.25a.6.6,0,0,1-.6-.6V20.41a.6.6,0,0,1,.6-.6h1.16V18a.58.58,0,0,1,.35-.53.62.62,0,0,1,.65.08l3.64,3a.61.61,0,0,1,0,.92l-3.64,3a.62.62,0,0,1-.39.14.58.58,0,0,1-.26-.06A.59.59,0,0,1,24.41,24ZM33,12.51v17a1.22,1.22,0,0,1-1.21,1.22h-15a1.22,1.22,0,0,1-1.21-1.22V26.07H18v2.21H30.57V13.72H18v2.21H15.59V12.51a1.22,1.22,0,0,1,1.21-1.22h15A1.22,1.22,0,0,1,33,12.51ZM9.52,20.68l2,3.11H10.38a.28.28,0,0,1-.18-.06.69.69,0,0,1-.11-.13L8.71,21.32a.36.36,0,0,1,0,.09.3.3,0,0,1,0,.08L7.31,23.6l-.11.13a.23.23,0,0,1-.16.06H6l2-3.07-1.9-2.88h1.1a.34.34,0,0,1,.17,0,.18.18,0,0,1,.09.1L8.8,20.15l0-.1.06-.11,1.24-2a.27.27,0,0,1,.23-.15h1.07Zm6.76-.16a2.22,2.22,0,0,0,.14-.79,2.06,2.06,0,0,0-.13-.76,1.42,1.42,0,0,0-.42-.6,1.91,1.91,0,0,0-.72-.39,3.23,3.23,0,0,0-1-.14H12.18v5.95h1.1v-2.1h.83a3.44,3.44,0,0,0,1-.14,2.12,2.12,0,0,0,.72-.41A1.69,1.69,0,0,0,16.28,20.52Zm-1-.33a.87.87,0,0,1-.22.34.89.89,0,0,1-.38.22,1.64,1.64,0,0,1-.53.08h-.83V18.69h.83a2,2,0,0,1,.53.07A1,1,0,0,1,15,19a.83.83,0,0,1,.22.33,1.18,1.18,0,0,1,.07.43A1.35,1.35,0,0,1,15.24,20.19Zm1.49,3.6,2-3.07-1.9-2.88h1.11a.32.32,0,0,1,.16,0,.18.18,0,0,1,.09.1l1.36,2.18,0-.1.06-.11,1.24-2a.27.27,0,0,1,.23-.15h1.07l-1.92,2.84,2,3.11H21.11a.28.28,0,0,1-.18-.06.69.69,0,0,1-.11-.13l-1.38-2.28a.36.36,0,0,1,0,.09.3.3,0,0,1,0,.08L18,23.6a.63.63,0,0,1-.11.13.23.23,0,0,1-.16.06Z"/></svg>