<svg id="Layer_1" data-name="Layer 1" xmlns="http://www.w3.org/2000/svg" viewBox="0 0 42 42"><defs><style>.cls-1{fill:#225c67;}</style></defs><title>icon-recovery-pin-green</title><path class="cls-1" d="M21,0A21,21,0,1,0,42,21,21,21,0,0,0,21,0Zm0,40.69A19.69,19.69,0,1,1,40.69,21,19.71,19.71,0,0,1,21,40.69ZM34.83,15.33H7.17A3.17,3.17,0,0,0,4,18.51v5a3.17,3.17,0,0,0,3.17,3.18H34.83A3.17,3.17,0,0,0,38,23.49v-5A3.17,3.17,0,0,0,34.83,15.33ZM12.57,21.92A.63.63,0,0,1,11.93,23l-1.57-.92v1.82a.63.63,0,0,1-1.25,0V22.09L7.54,23a.63.63,0,0,1-.63-1.09L8.49,21l-1.58-.92A.63.63,0,0,1,7.54,19l1.57.91V18.09a.63.63,0,0,1,1.25,0v1.82L11.93,19a.63.63,0,0,1,.64,1.09L11,21Zm7.5,0A.63.63,0,1,1,19.44,23l-1.57-.92v1.82a.63.63,0,0,1-1.25,0V22.09L15.05,23a.63.63,0,0,1-.63-1.09L16,21l-1.58-.92A.63.63,0,0,1,15.05,19l1.57.91V18.09a.63.63,0,0,1,1.25,0v1.82L19.44,19a.63.63,0,1,1,.63,1.09L18.49,21Zm7.51,0A.63.63,0,1,1,27,23l-1.57-.92v1.82a.63.63,0,0,1-1.25,0V22.09L22.56,23a.63.63,0,0,1-.63-1.09L23.51,21l-1.58-.92A.63.63,0,0,1,22.56,19l1.57.91V18.09a.63.63,0,0,1,1.25,0v1.82L27,19a.63.63,0,1,1,.63,1.09L26,21Zm7.51,0A.63.63,0,1,1,34.46,23l-1.57-.92v1.82a.63.63,0,0,1-1.25,0V22.09L30.07,23a.63.63,0,0,1-.64-1.09L31,21l-1.59-.92A.63.63,0,0,1,30.07,19l1.57.91V18.09a.63.63,0,0,1,1.25,0v1.82L34.46,19a.63.63,0,1,1,.63,1.09L33.51,21Z"/></svg>