<svg id="Layer_1" data-name="Layer 1" xmlns="http://www.w3.org/2000/svg" viewBox="0 0 32 32"><defs><style>.cls-1{fill:#235d68;}</style></defs><title>icon-transfer-assets-nav-green</title><path class="cls-1" d="M16,0A16,16,0,1,0,32,16,16,16,0,0,0,16,0ZM26.8,13.77l-5.5,5.6a.75.75,0,0,1-.55.23.79.79,0,0,1-.79-.8V16.4H11.32a.8.8,0,0,1-.79-.8V14.33L6.93,18l3.6,3.67V20.4a.8.8,0,0,1,.79-.8H17.6a.8.8,0,0,1,0,1.6H12.1v2.4a.78.78,0,0,1-.78.8.79.79,0,0,1-.56-.23l-5.5-5.6a.83.83,0,0,1,0-1.14l5.5-5.6a.78.78,0,0,1,1.34.57v2.4h8.65a.79.79,0,0,1,.78.8v1.27l3.61-3.67L21.53,9.53V10.8a.79.79,0,0,1-.78.8H14.46a.8.8,0,0,1,0-1.6H20V7.6A.79.79,0,0,1,20.19,7,.77.77,0,0,1,21.3,7l5.5,5.6A.81.81,0,0,1,26.8,13.77Z"/></svg>