<svg id="Layer_1" data-name="Layer 1" xmlns="http://www.w3.org/2000/svg" viewBox="0 0 32 32"><defs><style>.cls-1{fill:#225c67;}</style></defs><title>icon-balance-green</title><path class="cls-1" d="M16,0A16,16,0,1,0,32,16,16,16,0,0,0,16,0Zm0,31A15,15,0,1,1,31,16,15,15,0,0,1,16,31Zm6.64-19.63a2.6,2.6,0,0,0,.06-.56v-.6c0-1.19-.86-2.29-2.43-3.08A12.38,12.38,0,0,0,14.85,6,12.38,12.38,0,0,0,9.43,7.13C7.86,7.92,7,9,7,10.21v.6c0,1.18.84,2.26,2.37,3a3.05,3.05,0,0,0-.07.56v.11c-1.48.78-2.3,1.85-2.3,3v.59a3,3,0,0,0,1.13,2.22,2.5,2.5,0,0,0-.15.85v.6c0,1.19.86,2.29,2.43,3.08A12.38,12.38,0,0,0,15.83,26a12.38,12.38,0,0,0,5.42-1.13c1.57-.79,2.43-1.89,2.43-3.08v-.6A3,3,0,0,0,22.55,19a2.41,2.41,0,0,0,.15-.85V18c1.48-.79,2.3-1.85,2.3-3v-.6C25,13.23,24.16,12.15,22.64,11.37ZM8.1,9.71A3.42,3.42,0,0,1,9.87,8.06a11.42,11.42,0,0,1,5-1,11.42,11.42,0,0,1,5,1A3.42,3.42,0,0,1,21.6,9.71c-.8,1.44-3.59,2.49-6.75,2.49S8.9,11.15,8.1,9.71ZM8.1,17a3,3,0,0,1,1.29-1.37,4.13,4.13,0,0,0,2.34,2.43,12.24,12.24,0,0,0,5.42,1.14h.59a13.93,13.93,0,0,1-2.89.3C11.69,19.51,8.9,18.46,8.1,17Zm14.48,3.66c-.8,1.45-3.59,2.5-6.75,2.5-2.75,0-5.21-.8-6.34-1.95a12.46,12.46,0,0,0,5.36,1.11,12.38,12.38,0,0,0,5.42-1.14A5.5,5.5,0,0,0,22,19.88,2.21,2.21,0,0,1,22.58,20.68ZM17.15,16.4c-2.76,0-5.24-.8-6.35-2a13.3,13.3,0,0,0,4,.59,12.38,12.38,0,0,0,5.42-1.13,5.11,5.11,0,0,0,1.94-1.58A3.38,3.38,0,0,1,23.9,13.9C23.1,15.35,20.31,16.4,17.15,16.4Z"/></svg>