<svg id="Layer_1" data-name="Layer 1" xmlns="http://www.w3.org/2000/svg" viewBox="0 0 32 32"><defs><style>.cls-1{fill:#225c67;}</style></defs><title>icon-settings-green</title><path class="cls-1" d="M16,0A16,16,0,1,0,32,16,16,16,0,0,0,16,0Zm0,31A15,15,0,1,1,31,16,15,15,0,0,1,16,31ZM26.92,16.12a.6.6,0,0,0-.56-.55l-.58,0a4.64,4.64,0,0,0-.49-1l.32-.5a.61.61,0,0,0-.1-.79l-.73-.65a.56.56,0,0,0-.77,0l-.41.4a4.09,4.09,0,0,0-1.07-.36l-.11-.58a.6.6,0,0,0-.62-.49l-.95.09a.59.59,0,0,0-.53.58l0,.59a4.47,4.47,0,0,0-1,.56l-.48-.33a.56.56,0,0,0-.76.11l-.62.77a.62.62,0,0,0,0,.8l.43.47a4.46,4.46,0,0,0-.31,1.08l-.61.12a.62.62,0,0,0-.46.65l.08,1a.59.59,0,0,0,.56.55l.65,0a4.65,4.65,0,0,0,.46.92l-.36.57a.61.61,0,0,0,.11.79l.73.65a.56.56,0,0,0,.77,0L20,21.1a4.19,4.19,0,0,0,1,.33l.13.68a.6.6,0,0,0,.62.49l.95-.09a.59.59,0,0,0,.53-.58l0-.67a4.34,4.34,0,0,0,1-.51l.53.36a.56.56,0,0,0,.76-.12l.62-.76a.62.62,0,0,0,0-.8L25.62,19A4.52,4.52,0,0,0,26,17.88l.57-.12a.61.61,0,0,0,.47-.64Zm-5,2.88a1.89,1.89,0,0,1-2-1.78,1.93,1.93,0,0,1,1.7-2.11,1.91,1.91,0,0,1,2,1.78A1.94,1.94,0,0,1,21.92,19ZM10,17.66a.58.58,0,0,0,.57.54H12a.58.58,0,0,0,.57-.54l.1-.91a5.08,5.08,0,0,0,1.23-.51l.68.56a.56.56,0,0,0,.77-.05l1-1a.61.61,0,0,0,0-.8l-.52-.7A5.26,5.26,0,0,0,16.3,13l.81-.1a.6.6,0,0,0,.52-.6V10.85a.6.6,0,0,0-.52-.6l-.8-.09a5.39,5.39,0,0,0-.48-1.25l.49-.65a.65.65,0,0,0,0-.81l-1-1a.56.56,0,0,0-.77,0l-.61.5a5.17,5.17,0,0,0-1.25-.55l-.09-.81A.59.59,0,0,0,12,5H10.66a.6.6,0,0,0-.58.54L10,6.35a5.06,5.06,0,0,0-1.28.57L8.08,6.4a.56.56,0,0,0-.77,0l-1,1a.62.62,0,0,0,0,.8L6.83,9a5.65,5.65,0,0,0-.48,1.26l-.84.1a.6.6,0,0,0-.51.6v1.43a.6.6,0,0,0,.51.6l.89.11a5.75,5.75,0,0,0,.46,1.15l-.56.74a.62.62,0,0,0,0,.8l1,1a.55.55,0,0,0,.77,0l.7-.58a4.85,4.85,0,0,0,1.14.51Zm-.94-6.11a2.31,2.31,0,0,1,2.25-2.36,2.36,2.36,0,0,1,0,4.72A2.31,2.31,0,0,1,9.09,11.55Zm8,10.18-.37-.05a3.94,3.94,0,0,0-.31-.83l.23-.3a.61.61,0,0,0,0-.79l-.4-.43a.56.56,0,0,0-.76-.06l-.28.22a3.1,3.1,0,0,0-.83-.37l0-.38a.57.57,0,0,0-.56-.53H13.2a.57.57,0,0,0-.57.52l-.05.37a3.44,3.44,0,0,0-.86.37l-.29-.24a.54.54,0,0,0-.75,0l-.42.43a.61.61,0,0,0,0,.79l.24.33a3.48,3.48,0,0,0-.32.83l-.4.05a.58.58,0,0,0-.51.58v.61a.59.59,0,0,0,.5.6l.42.05a3.7,3.7,0,0,0,.3.78l-.27.35a.62.62,0,0,0,0,.79l.41.43a.55.55,0,0,0,.75.06l.34-.28a3.26,3.26,0,0,0,.76.35l.05.46a.57.57,0,0,0,.56.53h.58a.58.58,0,0,0,.57-.52l0-.43a3.46,3.46,0,0,0,.82-.34l.32.27a.55.55,0,0,0,.76,0l.41-.42a.62.62,0,0,0,.06-.79l-.25-.33a3.47,3.47,0,0,0,.35-.84l.38,0a.58.58,0,0,0,.51-.58v-.61A.6.6,0,0,0,17.13,21.73Zm-3.71,2.41a1.58,1.58,0,1,1,1.52-1.56A1.55,1.55,0,0,1,13.42,24.14Z"/></svg>