<svg xmlns="http://www.w3.org/2000/svg" viewBox="0 0 32 32"><path d="M16,0A16,16,0,1,0,32,16,16,16,0,0,0,16,0Zm0,31A15,15,0,1,1,31,16,15,15,0,0,1,16,31Z" style="fill:#235d68"/><path d="M12.89,14l-6-2.76a.5.5,0,0,0-.71.45v6.56a.51.51,0,0,0,.26.44l6,3.19a.5.5,0,0,0,.73-.45v-7A.49.49,0,0,0,12.89,14Z" style="fill:#235d68"/><path d="M20.25,11.25l-6,2.76a.49.49,0,0,0-.29.45v7a.5.5,0,0,0,.73.45l6-3.19a.51.51,0,0,0,.26-.44V11.7A.49.49,0,0,0,20.25,11.25Z" style="fill:#235d68"/><polygon points="7.86 6.85 7.86 6.85 7.86 6.85 7.86 6.85" style="fill:#235d68"/><path d="M14.25,7.87l1.15-.44-1.28-.5a1.44,1.44,0,0,0-.54-.1A4.88,4.88,0,0,1,14.25,7.87Z" style="fill:#235d68"/><path d="M9,6.83a2.89,2.89,0,0,0,.64,1.3,14.18,14.18,0,0,0,2.29,1.44A4.44,4.44,0,0,0,9,6.83Z" style="fill:#235d68"/><path d="M9.18,8.57l-.08-.1-2.16.85a.56.56,0,0,0,0,1l1.73.8a1.51,1.51,0,0,1,.54-1,5.51,5.51,0,0,1,1.27-.73A7.87,7.87,0,0,1,9.18,8.57Z" style="fill:#235d68"/><path d="M16.55,11.27c0-.11-.51-.54-1.71-.69l-.33,0a2,2,0,0,1-.38.26,7.63,7.63,0,0,0,1.16.47,3.7,3.7,0,0,0,1.26.09Z" style="fill:#235d68"/><polygon points="12.27 11.21 12.27 11.22 12.27 11.22 12.27 11.21" style="fill:#235d68"/><path d="M16.16,12a4.17,4.17,0,0,1-1-.13,8.7,8.7,0,0,1-1.26-.51l-.57-.27c-.54.25-1.06.5-1.49.73-.15.09-.06.48.07.82l1.48.68a.55.55,0,0,0,.47,0l2.73-1.26V12Z" style="fill:#235d68"/><path d="M20.22,9.32l-1.44-.57-.29.13L18.31,9a1.67,1.67,0,0,1,.9,1.11,1.21,1.21,0,0,1-.2.87l1.25-.58A.56.56,0,0,0,20.22,9.32Z" style="fill:#235d68"/><path d="M14.89,8.52a6.73,6.73,0,0,1,1.23-.12,4.75,4.75,0,0,1,1.41.2l.71-.3-1.65-.65-1.92.74.1.15Z" style="fill:#235d68"/><path d="M17.81,9.38A4.67,4.67,0,0,0,15,9.14a1.94,1.94,0,0,1,0,.24,1.58,1.58,0,0,1-.11.58c1.15.14,2.26.61,2.26,1.31l1.26-.63S19.07,10,17.81,9.38Z" style="fill:#235d68"/><path d="M11.12,9.85a6.81,6.81,0,0,0-1.49.79.8.8,0,0,0-.24.86l1.59.74a.83.83,0,0,1,.54-1c.24-.12.65-.31,1.15-.53a1.58,1.58,0,0,1-.29-.22C12.15,10.4,11.66,10.15,11.12,9.85Z" style="fill:#235d68"/><path d="M13.46,7.81h.06a4.38,4.38,0,0,0-.75-1,3.87,3.87,0,0,0-2.51-1.26l-1.6.59c.95-.15,2.45.72,3.45,2.38A1.57,1.57,0,0,1,13.46,7.81Z" style="fill:#235d68"/><circle cx="13.46" cy="9.38" r="0.94" style="fill:#235d68"/><path d="M20.74,20.05l2,.71a.7.7,0,0,0-.05.25c0,.59.69,1,1.56,1s1.55-.46,1.55-1S25.11,20,24.24,20a2.07,2.07,0,0,0-1.07.28L21,19.45a.31.31,0,0,0-.41.19A.33.33,0,0,0,20.74,20.05Zm4.42,1c0,.16-.37.41-.92.41s-.92-.25-.92-.41.37-.41.92-.41S25.16,20.85,25.16,21Z" style="fill:#235d68"/><path d="M19.46,22.62a1.94,1.94,0,0,0-1.06.29l-2.21-.8a.32.32,0,0,0-.41.19.31.31,0,0,0,.19.41l2,.71a.73.73,0,0,0,0,.25c0,.59.68,1,1.55,1s1.56-.46,1.56-1S20.34,22.62,19.46,22.62Zm0,1.46c-.55,0-.91-.24-.91-.41s.36-.41.91-.41.92.25.92.41S20,24.08,19.46,24.08Z" style="fill:#235d68"/><path d="M25.4,22.93a1.88,1.88,0,0,0-1.21.39L22,22.46l-.41-.87a.35.35,0,0,0-.18-.16L19,20.58a.32.32,0,0,0-.21.6l2.24.8.41.87a.37.37,0,0,0,.17.16l2.21.86a.41.41,0,0,0,0,.11c0,.59.68,1.05,1.55,1.05S27,24.57,27,24,26.28,22.93,25.4,22.93Zm0,1.46c-.55,0-.91-.25-.91-.41a.44.44,0,0,0,.12-.15.09.09,0,0,0,0,0,1.4,1.4,0,0,1,.78-.21c.56,0,.92.24.92.41S26,24.39,25.4,24.39Z" style="fill:#235d68"/></svg>