<svg id="Layer_1" data-name="Layer 1" xmlns="http://www.w3.org/2000/svg" viewBox="0 0 42 42"><defs><style>.cls-1{fill:#225c67;}</style></defs><title>icon-address-book-green</title><path class="cls-1" d="M21,0A21,21,0,1,0,42,21,21,21,0,0,0,21,0Zm0,40.69A19.69,19.69,0,1,1,40.69,21,19.71,19.71,0,0,1,21,40.69Z"/><path class="cls-1" d="M31.62,10H10.39A3.55,3.55,0,0,0,7,13.68V28.32A3.55,3.55,0,0,0,10.39,32H31.62A3.54,3.54,0,0,0,35,28.32V13.68A3.54,3.54,0,0,0,31.62,10ZM17.42,27.56a8.89,8.89,0,0,1-2.82,0A8.79,8.79,0,0,1,10.82,26a1.72,1.72,0,0,1,.35-.25l2.42-1.3a1,1,0,0,0,.52-.85v-1a5.2,5.2,0,0,1-1-2,.79.79,0,0,1-.38-.67V18.87a.82.82,0,0,1,.27-.6V16.73s-.32-2.4,3-2.4,3,2.4,3,2.4v1.54a.79.79,0,0,1,.27.6v1.06a.79.79,0,0,1-.58.76,5.71,5.71,0,0,1-.8,1.6,3,3,0,0,1-.25.31v1a1,1,0,0,0,.55.87l2.59,1.27a2,2,0,0,1,.39.26A8.77,8.77,0,0,1,17.42,27.56Zm3.86-6,.06-.1a2.22,2.22,0,0,0,1.22-1.57h8a.63.63,0,0,1,.62.63v1a.64.64,0,0,1-.63.64H21.28Zm9.9,4.1a.63.63,0,0,1-.62.63h-6v-.41A3.46,3.46,0,0,0,24,24h6.57a.63.63,0,0,1,.62.64Zm0-8.27a.63.63,0,0,1-.62.63H22.41a1.13,1.13,0,0,0-.38-.45,5.58,5.58,0,0,0-.44-1.81h9a.63.63,0,0,1,.62.63Z"/></svg>