<svg id="Layer_1" data-name="Layer 1" xmlns="http://www.w3.org/2000/svg" viewBox="0 0 32 32"><defs><style>.cls-1{fill:#999;}</style></defs><title>icon-qr-code-gray</title><path class="cls-1" d="M16,0A16,16,0,1,0,32,16,16,16,0,0,0,16,0Zm0,31A15,15,0,1,1,31,16,15,15,0,0,1,16,31ZM7,25h8.18V16.82H7Zm1.64-6.55h4.91v4.9H8.64Zm1.63-8.18h1.64v1.64H10.27Zm0,9.82h1.64v1.64H10.27Zm9.82,3.27h1.64V25H20.09Zm-3.27-8.18H25V7H16.82Zm1.63-6.54h4.91v4.91H18.45Zm1.64,1.63h1.64v1.64H20.09ZM7,15.18h8.18V7H7ZM8.64,8.64h4.91v4.91H8.64ZM23.36,23.36H25V25H23.36Zm-3.27-3.27H18.45V25H16.82V16.82h4.91v1.63h1.63V16.82H25v4.91H20.09Z"/></svg>