<svg id="Layer_1" data-name="Layer 1" xmlns="http://www.w3.org/2000/svg" viewBox="0 0 42 42"><defs><style>.cls-1{fill:#999;}</style></defs><title>icon-languages-gray</title><path class="cls-1" d="M21,0A21,21,0,1,0,42,21,21,21,0,0,0,21,0Zm0,40.69A19.69,19.69,0,1,1,40.69,21,19.71,19.71,0,0,1,21,40.69ZM12.33,14.31H8V10h4.33ZM13.86,10H34v4.31H13.86ZM27.35,22.54H25.62l.86-2.14ZM8,32H34V15.83H8Zm16.39-3.23h-1.6V27.25h1.6Zm5.82,0H25.92V27.25h4.29ZM25.56,18.54h1.88l3,6.71h-2l-.53-1.31H25.06l-.53,1.31h-2ZM19.21,28.77h-4.3V27.25h4.3ZM12,19.57h2.76V18h1.52v1.57H19v1.51H17.74a6.57,6.57,0,0,1-1.11,1.78,6.17,6.17,0,0,0,1.24.67l.68.27L18,25.21l-.68-.27a8.14,8.14,0,0,1-1.8-1,8.14,8.14,0,0,1-1.8,1l-.68.27-.57-1.41.68-.27A5.89,5.89,0,0,0,16,21.08H12Zm-.19,7.68h1.6v1.52h-1.6Z"/></svg>