<svg id="Layer_1" data-name="Layer 1" xmlns="http://www.w3.org/2000/svg" viewBox="0 0 32 32"><defs><style>.cls-1{fill:#fff;}</style></defs><title>icon-receive-transfer-white</title><path class="cls-1" d="M4.92,17.7,15,27.59a1.47,1.47,0,0,0,2,0L27.08,17.7a1.39,1.39,0,0,0,0-2,1.45,1.45,0,0,0-1-.42H21.75V5.41a1.44,1.44,0,0,0-2.88,0v11.3a1.43,1.43,0,0,0,1.44,1.41h2.28L16,24.59,9.41,18.12h2.28a1.43,1.43,0,0,0,1.44-1.41V7.65A9.89,9.89,0,0,1,10.25,10v5.32H5.94A1.43,1.43,0,0,0,4.5,16.71,1.38,1.38,0,0,0,4.92,17.7Z"/></svg>