<?xml version="1.0" encoding="utf-8"?>
<!-- Generator: Adobe Illustrator 24.1.0, SVG Export Plug-In . SVG Version: 6.00 Build 0)  -->
<svg version="1.1" id="Layer_1" xmlns="http://www.w3.org/2000/svg" xmlns:xlink="http://www.w3.org/1999/xlink" x="0px" y="0px"
	 viewBox="0 0 32 32" style="enable-background:new 0 0 32 32;" xml:space="preserve">
<style type="text/css">
	.st0{fill:#999999;}
</style>
<g>
	<path class="st0" d="M16,0C7.2,0,0,7.2,0,16c0,8.8,7.2,16,16,16c8.8,0,16-7.2,16-16C32,7.2,24.8,0,16,0z M16,31C7.7,31,1,24.3,1,16
		S7.7,1,16,1s15,6.7,15,15S24.3,31,16,31z"/>
	<path class="st0" d="M18,19v6.3l5.3,1.3l2.9-2.2l0.4-5.9l-5.4-0.7L18,19z M25.9,24.3L23.6,26l0.3-6.1l2.3-1L25.9,24.3z M25.4,18.7
		l-1.8,0.8l-4.3-0.6l2-0.7L25.4,18.7z"/>
	<path class="st0" d="M22.4,11.9V5.6l-5.8-0.7l-3.4,1.2v5.2l-4.4-0.6l-4.4,1.7v9.5l7.8,1.7l4.1-3.1v-7l3,0.6L22.4,11.9z M22.1,11.8
		l-2.6,1.8V7.1L22.1,6V11.8z M8.8,11l4.4,0.6v1.1l-1.1,0.5l-6.6-0.9L8.8,11z M15.9,20.4L12.4,23v-9.3l1.5-0.7l2,0.4V20.4z M14.4,6
		l2.2-0.8l4.6,0.6l-2,0.8L14.4,6z"/>
</g>
</svg>
