<svg id="Layer_1" data-name="Layer 1" xmlns="http://www.w3.org/2000/svg" viewBox="0 0 42 42"><defs><style>.cls-1{fill:#999;}</style></defs><title>icon-private-key-gray</title><path class="cls-1" d="M21,0A21,21,0,1,0,42,21,21,21,0,0,0,21,0Zm0,40.69A19.69,19.69,0,1,1,40.69,21,19.71,19.71,0,0,1,21,40.69Zm7.55-31.5a4.09,4.09,0,0,0-5.78,0L10.63,21.33a1,1,0,0,0,0,1.44l1.43,1.42L8.3,27.9a1,1,0,0,0,0,1.44l4.42,4.37a1,1,0,0,0,.71.29,1,1,0,0,0,.72-.3L17.86,30l1.36,1.36a1,1,0,0,0,.72.3h0a1,1,0,0,0,.72-.3l8.53-8.58a1,1,0,0,0-1.44-1.43l-7.81,7.86L18.5,27.76l2.21-2.21.29,0a1.78,1.78,0,1,0-1.78-1.78,1.86,1.86,0,0,0,0,.34l-2.2,2.2-1.51-1.52L20,20.39h4.56a1,1,0,0,0,.72-.3l1.93-2a2,2,0,0,0,.34,0,1.78,1.78,0,1,0-1.77-1.78,1.27,1.27,0,0,0,0,.28l-1.67,1.7H19.58a1,1,0,0,0-.72.3l-4.75,4.71-1.32-1.32L24.2,10.63a2.06,2.06,0,0,1,2.91,0l4.27,4.26a2,2,0,0,1,0,2.86,1,1,0,0,0,1.44,1.44,4.07,4.07,0,0,0,0-5.74ZM13.49,25.63h0l2.92,2.93-3,3-3-2.93Z"/></svg>