<svg id="Layer_1" data-name="Layer 1" xmlns="http://www.w3.org/2000/svg" viewBox="0 0 42 42"><defs><style>.cls-1{fill:#999;}</style></defs><title>icon-node-gray</title><path class="cls-1" d="M21,0A21,21,0,1,0,42,21,21,21,0,0,0,21,0Zm0,40.69A19.69,19.69,0,1,1,40.69,21,19.71,19.71,0,0,1,21,40.69ZM9.84,25.08a1.79,1.79,0,0,0-.32,1v4.58a1.79,1.79,0,0,0,1.77,1.8H30.71a1.79,1.79,0,0,0,1.77-1.8V26.1a1.79,1.79,0,0,0-.32-1Zm3.7,5.06a1.75,1.75,0,1,1,1.72-1.75A1.73,1.73,0,0,1,13.54,30.14Zm9-1.94a.39.39,0,0,1-.38-.39.38.38,0,1,1,.76,0A.39.39,0,0,1,22.53,28.2Zm.77,1.16a.39.39,0,1,1,.38-.38A.38.38,0,0,1,23.3,29.36Zm.76-1.16a.39.39,0,0,1-.38-.39.38.38,0,1,1,.76,0A.39.39,0,0,1,24.06,28.2Zm.77,1.16a.39.39,0,1,1,.38-.38A.38.38,0,0,1,24.83,29.36Zm.76-1.16a.39.39,0,0,1-.38-.39.38.38,0,1,1,.76,0A.39.39,0,0,1,25.59,28.2Zm.77,1.16a.39.39,0,1,1,.38-.38A.38.38,0,0,1,26.36,29.36Zm.76-1.16a.39.39,0,0,1-.38-.39.38.38,0,1,1,.76,0A.39.39,0,0,1,27.12,28.2Zm.77,1.16a.39.39,0,1,1,.38-.38A.38.38,0,0,1,27.89,29.36Zm.76-1.16a.39.39,0,0,1-.38-.39.38.38,0,1,1,.76,0A.39.39,0,0,1,28.65,28.2Zm.77,1.16A.39.39,0,1,1,29.8,29,.38.38,0,0,1,29.42,29.36ZM9.84,17.69a1.79,1.79,0,0,0-.32,1v4.58a1.79,1.79,0,0,0,.32,1H32.16a1.79,1.79,0,0,0,.32-1V18.71a1.79,1.79,0,0,0-.32-1Zm3.7,5.06A1.75,1.75,0,1,1,15.26,21,1.73,1.73,0,0,1,13.54,22.75Zm9-1.94a.39.39,0,0,1-.38-.39.38.38,0,1,1,.76,0A.39.39,0,0,1,22.53,20.81ZM23.3,22a.38.38,0,0,1-.39-.39.39.39,0,1,1,.77,0A.38.38,0,0,1,23.3,22Zm.76-1.16a.39.39,0,0,1-.38-.39.38.38,0,1,1,.76,0A.39.39,0,0,1,24.06,20.81ZM24.83,22a.38.38,0,0,1-.39-.39.39.39,0,1,1,.77,0A.38.38,0,0,1,24.83,22Zm.76-1.16a.39.39,0,0,1-.38-.39.38.38,0,1,1,.76,0A.39.39,0,0,1,25.59,20.81ZM26.36,22a.38.38,0,0,1-.39-.39.39.39,0,1,1,.77,0A.38.38,0,0,1,26.36,22Zm.76-1.16a.39.39,0,0,1-.38-.39.38.38,0,1,1,.76,0A.39.39,0,0,1,27.12,20.81ZM27.89,22a.38.38,0,0,1-.39-.39.39.39,0,1,1,.77,0A.38.38,0,0,1,27.89,22Zm.76-1.16a.39.39,0,0,1-.38-.39.38.38,0,1,1,.76,0A.39.39,0,0,1,28.65,20.81ZM29.42,22a.38.38,0,0,1-.39-.39.39.39,0,1,1,.77,0A.38.38,0,0,1,29.42,22ZM30.71,9.52H11.29a1.79,1.79,0,0,0-1.77,1.8V15.9a1.73,1.73,0,0,0,.32,1H32.16a1.79,1.79,0,0,0,.32-1V11.32A1.79,1.79,0,0,0,30.71,9.52ZM13.54,15.36a1.75,1.75,0,1,1,1.72-1.75A1.74,1.74,0,0,1,13.54,15.36Zm9-1.95a.39.39,0,1,1,.38-.39A.38.38,0,0,1,22.53,13.41Zm.77,1.17a.38.38,0,0,1-.39-.39.39.39,0,1,1,.77,0A.38.38,0,0,1,23.3,14.58Zm.76-1.17a.39.39,0,1,1,.38-.39A.38.38,0,0,1,24.06,13.41Zm.77,1.17a.38.38,0,0,1-.39-.39.39.39,0,1,1,.77,0A.38.38,0,0,1,24.83,14.58Zm.76-1.17A.39.39,0,1,1,26,13,.38.38,0,0,1,25.59,13.41Zm.77,1.17a.38.38,0,0,1-.39-.39.39.39,0,1,1,.77,0A.38.38,0,0,1,26.36,14.58Zm.76-1.17A.39.39,0,1,1,27.5,13,.38.38,0,0,1,27.12,13.41Zm.77,1.17a.38.38,0,0,1-.39-.39.39.39,0,1,1,.77,0A.38.38,0,0,1,27.89,14.58Zm.76-1.17A.39.39,0,1,1,29,13,.38.38,0,0,1,28.65,13.41Zm.77,1.17a.38.38,0,0,1-.39-.39.39.39,0,1,1,.77,0A.38.38,0,0,1,29.42,14.58Z"/></svg>