<svg id="Layer_1" data-name="Layer 1" xmlns="http://www.w3.org/2000/svg" viewBox="0 0 42 42"><defs><style>.cls-1{fill:#999;}</style></defs><title>icon-faucet-gray</title><ellipse class="cls-1" cx="34.86" cy="3.97" rx="0.86" ry="0.85"/><path class="cls-1" d="M35.56,7.9a.57.57,0,1,0,.56.58A.58.58,0,0,0,35.56,7.9Z"/><path class="cls-1" d="M39.06,7.11a.7.7,0,1,0-.12-1.39.71.71,0,0,0-.64.76A.69.69,0,0,0,39.06,7.11Z"/><path class="cls-1" d="M42,5.69A5.73,5.73,0,0,0,31.18,3.1,20.93,20.93,0,0,0,0,21.21a20.91,20.91,0,0,0,41.82,0A20.63,20.63,0,0,0,39,10.72,5.69,5.69,0,0,0,42,5.69Zm-4.63-.37L37.6,5a.23.23,0,0,1,.29,0l.18.12a2,2,0,0,1,.38-.2V4.71a.22.22,0,0,1,.2-.21l.35,0a.24.24,0,0,1,.24.18l0,.2a1.87,1.87,0,0,1,.4.13l.15-.14a.23.23,0,0,1,.29,0l.27.23a.22.22,0,0,1,0,.29l-.12.18a1.16,1.16,0,0,1,.18.35h.22a.22.22,0,0,1,.21.2l0,.35a.21.21,0,0,1-.17.23l-.22,0a1.61,1.61,0,0,1-.12.39l.15.16a.22.22,0,0,1,0,.29l-.23.27a.2.2,0,0,1-.28,0l-.2-.13a1.62,1.62,0,0,1-.37.19v.24a.2.2,0,0,1-.19.2l-.36,0a.21.21,0,0,1-.23-.17L38.69,8a2.29,2.29,0,0,1-.37-.12L38.14,8a.21.21,0,0,1-.28,0l-.28-.23a.22.22,0,0,1,0-.28l.14-.2A1.73,1.73,0,0,1,37.51,7h-.25a.22.22,0,0,1-.21-.2l0-.35a.22.22,0,0,1,.18-.23l.22,0a1.29,1.29,0,0,1,.12-.38l-.16-.17A.2.2,0,0,1,37.37,5.32Zm-.61,3.93a.22.22,0,0,1,0,.29l-.15.15a.23.23,0,0,1-.29,0l-.12-.1a1.66,1.66,0,0,1-.31.12l0,.16a.22.22,0,0,1-.22.18h-.22a.21.21,0,0,1-.21-.19l0-.17a1.48,1.48,0,0,1-.29-.12l-.13.1a.23.23,0,0,1-.29,0l-.15-.16a.21.21,0,0,1,0-.29l.1-.12a1,1,0,0,1-.11-.28l-.17,0A.22.22,0,0,1,34,8.58V8.36a.21.21,0,0,1,.19-.21h.15a1.2,1.2,0,0,1,.13-.31l-.09-.12a.2.2,0,0,1,0-.28l.15-.16a.23.23,0,0,1,.29,0l.11.09a1.2,1.2,0,0,1,.33-.13V7.08a.22.22,0,0,1,.22-.19h.22a.21.21,0,0,1,.21.19l0,.14a1.07,1.07,0,0,1,.31.13l.11-.08a.22.22,0,0,1,.29,0l.15.16a.2.2,0,0,1,0,.28l-.08.11a1.21,1.21,0,0,1,.11.3l.15,0a.21.21,0,0,1,.18.22v.22a.21.21,0,0,1-.19.21H36.8a1,1,0,0,1-.13.3ZM32.45,3.74a.21.21,0,0,1,.19-.21l.32,0A2,2,0,0,1,33.14,3l-.2-.25a.22.22,0,0,1,0-.29l.37-.36a.22.22,0,0,1,.29,0l.24.19a1.68,1.68,0,0,1,.48-.2l0-.3a.22.22,0,0,1,.22-.19h.52a.21.21,0,0,1,.21.19l0,.3a2.11,2.11,0,0,1,.47.19l.23-.18a.21.21,0,0,1,.29,0l.37.36a.22.22,0,0,1,0,.29L36.56,3a1.77,1.77,0,0,1,.18.45l.31,0a.22.22,0,0,1,.19.22v.52a.21.21,0,0,1-.19.21l-.31,0a1.79,1.79,0,0,1-.19.45l.2.26a.2.2,0,0,1,0,.28l-.37.37a.23.23,0,0,1-.29,0l-.25-.21a2.11,2.11,0,0,1-.47.19l0,.33a.21.21,0,0,1-.22.19h-.51a.22.22,0,0,1-.22-.19l0-.34a2.44,2.44,0,0,1-.44-.19l-.26.21a.21.21,0,0,1-.29,0L33,5.48a.21.21,0,0,1,0-.29l.22-.26A1.57,1.57,0,0,1,33,4.51l-.34,0a.21.21,0,0,1-.19-.21Zm8.09,17.47A19.59,19.59,0,1,1,30.72,4.3a5.81,5.81,0,0,0-.17,1.39,5.7,5.7,0,0,0,5.73,5.69,5.56,5.56,0,0,0,1.48-.19A19.29,19.29,0,0,1,40.54,21.21Z"/><path class="cls-1" d="M12.54,31.14a1,1,0,0,0,1,1h1.87a1,1,0,0,0,1-1v-17l-3.93.28Z"/><path class="cls-1" d="M16.47,9.42a1,1,0,0,0-1-1H13.57a1,1,0,0,0-1,1v1.36h3.93Z"/><path class="cls-1" d="M24,13.57a1,1,0,0,0,1,1h2.12a1,1,0,0,0,1-1v-.79l.68,0V11.28H11V14l13-.93Z"/><path class="cls-1" d="M31.22,28.68H20.06a1,1,0,0,0-1,1v1.42a1,1,0,0,0,1,1H31.22a1,1,0,0,0,1-1V29.71A1,1,0,0,0,31.22,28.68Zm.7,2.45a.69.69,0,0,1-.7.69H20.06a.69.69,0,0,1-.69-.69V29.71a.69.69,0,0,1,.69-.69H31.22a.69.69,0,0,1,.7.69Z"/><ellipse class="cls-1" cx="27.18" cy="17.85" rx="1.99" ry="1.98"/><ellipse class="cls-1" cx="22.46" cy="20.66" rx="2.34" ry="2.32"/><ellipse class="cls-1" cx="27.07" cy="24.71" rx="2.7" ry="2.68"/></svg>