<svg id="Layer_1" data-name="Layer 1" xmlns="http://www.w3.org/2000/svg" viewBox="0 0 32 32"><defs><style>.cls-1{fill:#999;}</style></defs><title>icon-accounts-gray</title><path class="cls-1" d="M16,0A16,16,0,1,0,32,16,16,16,0,0,0,16,0Zm0,31A15,15,0,1,1,31,16,15,15,0,0,1,16,31ZM7.54,13.19V18.4H6.75a2.06,2.06,0,0,1-2.06-2.06V10.46A2.06,2.06,0,0,1,6.75,8.4H18.62a2.05,2.05,0,0,1,2.05,1.93H10.4A2.86,2.86,0,0,0,7.54,13.19Zm3.2,2.4v5.54H10.4a2.07,2.07,0,0,1-2.06-2.07V13.19a2.06,2.06,0,0,1,2.06-2.06H22.27a2.06,2.06,0,0,1,2,1.6H13.6A2.86,2.86,0,0,0,10.74,15.59Zm14.73-2.06H13.6a2.06,2.06,0,0,0-2.06,2.06v5.87a2.07,2.07,0,0,0,2.06,2.07H25.47a2.07,2.07,0,0,0,2.07-2.07V15.59A2.07,2.07,0,0,0,25.47,13.53ZM19.78,15.2a7.84,7.84,0,0,1,3.33.76,4.62,4.62,0,0,0-2.21.13,1.24,1.24,0,0,1-.41.08c-.17,0-.41-.31-.53-.43a3,3,0,0,0-.69-.52Zm-3.51,1v-.12l.11-.05a8.15,8.15,0,0,1,2.16-.7l.1.12c.07.09.14.17.2.26a2.18,2.18,0,0,1,.22.31,5.26,5.26,0,0,1,.35.58.26.26,0,0,1,0,.15.22.22,0,0,1-.07.11.94.94,0,0,1-.18.12l-.83.65c-.31.25-.61.54-.9.81s-.41.42-.62.66A7.11,7.11,0,0,1,16.27,16.17Zm3.62,6.18-.11.07-.1-.07A7.1,7.1,0,0,1,17,19.45c.4-.31.84-.61,1.16-.81a13.25,13.25,0,0,1,1.33-.72,1.48,1.48,0,0,1,.47-.17.29.29,0,0,1,.14,0c.15.06.4.46.4.46h0a1.27,1.27,0,0,0,.13.19,2.53,2.53,0,0,1,.13.22l.2.31c.1.18.21.36.3.53s.36.72.55,1.16A7.06,7.06,0,0,1,19.89,22.35Zm2.25-2.18A11.16,11.16,0,0,0,21.82,19c-.06-.19-.13-.38-.19-.57s-.14-.37-.22-.55c-.33-.79-.3-.79.31-1.14a3.76,3.76,0,0,1,1.53-.49h.05A7,7,0,0,1,22.14,20.17Z"/></svg>