<svg id="Layer_1" data-name="Layer 1" xmlns="http://www.w3.org/2000/svg" viewBox="0 0 42 42"><defs><style>.cls-1{fill:#225c67;}</style></defs><title>icon-multisig-green</title><path class="cls-1" d="M21,0A21,21,0,1,0,42,21,21,21,0,0,0,21,0Zm0,40.69A19.69,19.69,0,1,1,40.69,21,19.71,19.71,0,0,1,21,40.69Zm7.06-10.45a3.87,3.87,0,0,1,.58.38,13,13,0,0,1-5.53,2.3,13.19,13.19,0,0,1-4.16,0,13,13,0,0,1-5.59-2.34,3.8,3.8,0,0,1,.53-.36l3.57-1.92A1.42,1.42,0,0,0,18.22,27V25.6a7.73,7.73,0,0,1-1.45-2.94,1.18,1.18,0,0,1-.55-1V20.09a1.16,1.16,0,0,1,.4-.87V16.94S16.15,13.4,21,13.4s4.41,3.54,4.41,3.54v2.28a1.16,1.16,0,0,1,.4.87v1.58A1.18,1.18,0,0,1,25,22.79a8.88,8.88,0,0,1-1.19,2.36c-.13.18-.26.33-.36.45v1.48a1.43,1.43,0,0,0,.8,1.28ZM15,28.49a12.69,12.69,0,0,1-3.68,0A12.92,12.92,0,0,1,5.73,26.1a3.2,3.2,0,0,1,.52-.36l3.58-1.92a1.44,1.44,0,0,0,.76-1.26V21.12a7.73,7.73,0,0,1-1.45-2.94,1.19,1.19,0,0,1-.56-1V15.61a1.16,1.16,0,0,1,.4-.87V12.46s-.47-3.54,4.41-3.54,4.4,3.54,4.4,3.54v.65a4.34,4.34,0,0,0-1.2.9,4.12,4.12,0,0,0-1,3v1.85a2.16,2.16,0,0,0-.4,1.25v1.58a2.15,2.15,0,0,0,.67,1.56,9.1,9.1,0,0,0,1.33,2.71V27a.44.44,0,0,1-.23.38Zm21-2.35a12.84,12.84,0,0,1-9.25,2.35l-2.08-1a.43.43,0,0,1-.25-.38V26l.18-.23a9.55,9.55,0,0,0,1.18-2.21,2.17,2.17,0,0,0,1-1.85V20.09a2.24,2.24,0,0,0-.4-1.25V17a4.12,4.12,0,0,0-1-3A4.27,4.27,0,0,0,24,13v-.52s-.47-3.54,4.41-3.54,4.4,3.54,4.4,3.54v2.28a1.16,1.16,0,0,1,.4.87v1.58a1.19,1.19,0,0,1-.85,1.12,8.73,8.73,0,0,1-1.19,2.36,5,5,0,0,1-.36.45V22.6a1.43,1.43,0,0,0,.8,1.28l3.83,1.88A3.87,3.87,0,0,1,36,26.14Z"/></svg>