<svg id="Layer_1" data-name="Layer 1" xmlns="http://www.w3.org/2000/svg" viewBox="0 0 42 42"><defs><style>.cls-1{fill:#225c67;}</style></defs><title>icon-wallet-guide-green</title><path class="cls-1" d="M21,0A21,21,0,1,0,42,21,21,21,0,0,0,21,0Zm0,40.69A19.69,19.69,0,1,1,40.69,21,19.71,19.71,0,0,1,21,40.69Zm10.42-29.9a.91.91,0,0,0-.69-.31H22.48V8.81A.81.81,0,0,0,21.67,8H19.58a.81.81,0,0,0-.81.81v1.67H14.12a.92.92,0,0,0-.92.92v5a.93.93,0,0,0,.92.93h4.65v1.8h-7.5a.92.92,0,0,0-.69.32L8.31,22a.92.92,0,0,0,0,1.24l2.24,2.36a.9.9,0,0,0,.67.29h7.52v7.29a.81.81,0,0,0,.81.81h2.09a.81.81,0,0,0,.81-.81V25.9h5.4A.92.92,0,0,0,28.8,25V20a.93.93,0,0,0-.92-.93h-5.4v-1.8h8.27a.94.94,0,0,0,.67-.29l2.24-2.37a.92.92,0,0,0,0-1.24ZM18.15,12.33h5a.62.62,0,0,1,0,1.24h-5a.62.62,0,0,1,0-1.24Zm5.7,11.72H14a.62.62,0,0,1-.62-.62.62.62,0,0,1,.62-.62h9.9a.62.62,0,0,1,.62.62A.62.62,0,0,1,23.85,24.05Zm0-3.1a.62.62,0,1,1,0,1.24h-5a.62.62,0,0,1,0-1.24Zm4.2-5.52h-9.9a.62.62,0,0,1,0-1.24h9.9a.62.62,0,0,1,0,1.24Z"/></svg>