<svg id="Layer_1" data-name="Layer 1" xmlns="http://www.w3.org/2000/svg" viewBox="0 0 32 32"><defs><style>.cls-1{fill:#999;}</style></defs><title>icon-accounts-gray</title><path class="cls-1" d="M23.88,23.83a3.22,3.22,0,0,1,.66.42,14.57,14.57,0,0,1-17.08,0,3,3,0,0,1,.6-.41l4-2.14a1.61,1.61,0,0,0,.85-1.41V18.64a8.58,8.58,0,0,1-1.62-3.29,1.33,1.33,0,0,1-.62-1.11V12.48a1.3,1.3,0,0,1,.45-1V9S10.57,5,16,5,21,9,21,9V11.5a1.32,1.32,0,0,1,.44,1v1.76a1.33,1.33,0,0,1-.95,1.26,9.31,9.31,0,0,1-1.33,2.63,5.07,5.07,0,0,1-.4.51v1.65a1.59,1.59,0,0,0,.9,1.43ZM32,16A16,16,0,1,1,16,0,16,16,0,0,1,32,16Zm-1,0A15,15,0,1,0,16,31,15,15,0,0,0,31,16Z"/></svg>