<svg id="Layer_1" data-name="Layer 1" xmlns="http://www.w3.org/2000/svg" viewBox="0 0 32 32"><defs><style>.cls-1{fill:#225c67;}</style></defs><title>icon-services-green</title><path class="cls-1" d="M12.25,8.62v3.69a.62.62,0,0,1-.63.61h-5A.61.61,0,0,1,6,12.31V8.62A.62.62,0,0,1,6.62,8h5A.63.63,0,0,1,12.25,8.62ZM18.5,8h-5a.62.62,0,0,0-.62.62v3.69a.61.61,0,0,0,.62.61h5a.61.61,0,0,0,.62-.61V8.62A.62.62,0,0,0,18.5,8Zm6.88,0h-5a.63.63,0,0,0-.63.62v3.69a.62.62,0,0,0,.63.61h5a.61.61,0,0,0,.62-.61V8.62A.62.62,0,0,0,25.38,8ZM11.62,13.54h-5a.61.61,0,0,0-.62.61v3.7a.61.61,0,0,0,.62.61h5a.62.62,0,0,0,.63-.61v-3.7A.62.62,0,0,0,11.62,13.54Zm6.88,0h-5a.61.61,0,0,0-.62.61v3.7a.61.61,0,0,0,.62.61h5a.61.61,0,0,0,.62-.61v-3.7A.61.61,0,0,0,18.5,13.54Zm6.88,0h-5a.62.62,0,0,0-.63.61v3.7a.62.62,0,0,0,.63.61h5a.61.61,0,0,0,.62-.61v-3.7A.61.61,0,0,0,25.38,13.54ZM11.62,19.08h-5a.61.61,0,0,0-.62.61v3.69a.62.62,0,0,0,.62.62h5a.63.63,0,0,0,.63-.62V19.69A.62.62,0,0,0,11.62,19.08Zm6.88,0h-5a.61.61,0,0,0-.62.61v3.69a.62.62,0,0,0,.62.62h5a.62.62,0,0,0,.62-.62V19.69A.61.61,0,0,0,18.5,19.08Zm6.88,0h-5a.62.62,0,0,0-.63.61v3.69a.63.63,0,0,0,.63.62h5a.62.62,0,0,0,.62-.62V19.69A.61.61,0,0,0,25.38,19.08ZM32,16A16,16,0,1,1,16,0,16,16,0,0,1,32,16Zm-1,0A15,15,0,1,0,16,31,15,15,0,0,0,31,16Z"/></svg>