<svg id="Layer_1" data-name="Layer 1" xmlns="http://www.w3.org/2000/svg" viewBox="0 0 32 32"><defs><style>.cls-1{fill:#999;}</style></defs><title>icon-notification-gray</title><path class="cls-1" d="M12.33,23.93H19A3.3,3.3,0,0,1,15.67,26,3.32,3.32,0,0,1,12.33,23.93Zm12.59-3.49a.88.88,0,0,0-.1-.22,1.51,1.51,0,0,0-.09-.18,1.68,1.68,0,0,0-.18-.21,1,1,0,0,0-.1-.11,6.12,6.12,0,0,1-1.27-1.52.83.83,0,0,1-.07-.13c-.08-.14-.15-.28-.22-.43s-.12-.27-.17-.41l-.06-.16a4.23,4.23,0,0,1-.17-.58v0a7.59,7.59,0,0,1-.17-1.28h0c0-.06,0-.12,0-.19V12.44a6.3,6.3,0,1,0-12.6,0V15c0,.07,0,.13,0,.19h0a6.69,6.69,0,0,1-.17,1.28v0a4.23,4.23,0,0,1-.17.58l-.06.16c0,.14-.11.28-.17.41s-.14.29-.22.43a.83.83,0,0,1-.07.13,6.12,6.12,0,0,1-1.27,1.52,1,1,0,0,0-.1.11,1.68,1.68,0,0,0-.18.21,1.51,1.51,0,0,0-.09.18.88.88,0,0,0-.1.22,1.16,1.16,0,0,0,0,.18,1.18,1.18,0,0,0,0,.25c0,.07,0,.13,0,.2a1.49,1.49,0,0,0,0,.21s0,0,0,.06v0s0,.07,0,.11a.42.42,0,0,0,0,.1,1.51,1.51,0,0,0,.09.18l0,0L7.4,22l0,0a1.75,1.75,0,0,0,1.25.53H23.33A1.75,1.75,0,0,0,24.58,22l0,0,.15-.19,0,0a1.51,1.51,0,0,0,.09-.18.42.42,0,0,0,0-.1s0-.07,0-.11v0s0,0,0-.06a1.49,1.49,0,0,0,0-.21c0-.07,0-.13,0-.2a1.18,1.18,0,0,0,0-.25A1.16,1.16,0,0,0,24.92,20.44ZM32,16A16,16,0,1,1,16,0,16,16,0,0,1,32,16Zm-1,0A15,15,0,1,0,16,31,15,15,0,0,0,31,16Z"/></svg>