<svg id="Layer_1" data-name="Layer 1" xmlns="http://www.w3.org/2000/svg" viewBox="0 0 32 32"><defs><style>.cls-1{fill:#fff;}</style></defs><title>icon-send-transfer-white</title><path class="cls-1" d="M27.08,14.3,17,4.41a1.47,1.47,0,0,0-2,0L4.92,14.3a1.39,1.39,0,0,0,0,2,1.45,1.45,0,0,0,1,.42h4.31v9.88a1.44,1.44,0,0,0,2.88,0V15.29a1.43,1.43,0,0,0-1.44-1.41H9.41L16,7.41l6.59,6.47H20.31a1.43,1.43,0,0,0-1.44,1.41v9.06A9.89,9.89,0,0,1,21.75,22V16.71h4.31a1.43,1.43,0,0,0,1.44-1.42A1.38,1.38,0,0,0,27.08,14.3Z"/></svg>