<svg id="Layer_1" data-name="Layer 1" xmlns="http://www.w3.org/2000/svg" viewBox="0 0 42 42"><defs><style>.cls-1{fill:#225c67;}</style></defs><title>icon-swap-green</title><path class="cls-1" d="M9.52,20.68l2,3.11H10.38a.28.28,0,0,1-.18-.06.69.69,0,0,1-.11-.13L8.71,21.32a.36.36,0,0,1,0,.09.3.3,0,0,1,0,.08L7.31,23.6l-.11.13a.23.23,0,0,1-.16.06H6l2-3.07-1.9-2.88h1.1a.34.34,0,0,1,.17,0,.18.18,0,0,1,.09.1L8.8,20.15l0-.1.06-.11,1.24-2a.27.27,0,0,1,.23-.15h1.07Zm6.33.46a2.12,2.12,0,0,1-.72.41,3.44,3.44,0,0,1-1,.14h-.83v2.1h-1.1V17.84h1.93a3.23,3.23,0,0,1,1,.14,1.91,1.91,0,0,1,.72.39,1.42,1.42,0,0,1,.42.6,2.06,2.06,0,0,1,.13.76,2.22,2.22,0,0,1-.14.79A1.69,1.69,0,0,1,15.85,21.14Zm-.54-1.41a1.18,1.18,0,0,0-.07-.43A.83.83,0,0,0,15,19a1,1,0,0,0-.38-.21,2,2,0,0,0-.53-.07h-.83v2.14h.83a1.64,1.64,0,0,0,.53-.08.89.89,0,0,0,.38-.22.87.87,0,0,0,.22-.34A1.35,1.35,0,0,0,15.31,19.73Zm9.45,4.77a.58.58,0,0,0,.26.06.62.62,0,0,0,.39-.14l3.64-3a.61.61,0,0,0,0-.92l-3.64-3a.62.62,0,0,0-.65-.08.58.58,0,0,0-.35.53v1.78H23.25a.6.6,0,0,0-.6.6v1.18a.6.6,0,0,0,.6.6h1.16V24A.59.59,0,0,0,24.76,24.5ZM42,21A21,21,0,1,1,21,0,21,21,0,0,1,42,21Zm-1.31,0A19.69,19.69,0,1,0,21,40.69,19.71,19.71,0,0,0,40.69,21ZM17.77,23.79a.23.23,0,0,0,.16-.06A.63.63,0,0,0,18,23.6l1.32-2.11a.3.3,0,0,0,0-.08.36.36,0,0,0,0-.09l1.38,2.28a.69.69,0,0,0,.11.13.28.28,0,0,0,.18.06h1.11l-2-3.11,1.92-2.84H21.1a.27.27,0,0,0-.23.15l-1.24,2-.06.11,0,.1L18.17,18a.18.18,0,0,0-.09-.1.32.32,0,0,0-.16,0H16.81l1.9,2.88-2,3.07Zm14-12.5h-15a1.22,1.22,0,0,0-1.21,1.22v3.42H18V13.72H30.57V28.28H18V26.07H15.59v3.42a1.22,1.22,0,0,0,1.21,1.22h15A1.22,1.22,0,0,0,33,29.49v-17A1.22,1.22,0,0,0,31.79,11.29Z"/></svg>